<?xml version="1.0" encoding="UTF-8" standalone="no"?>
<!DOCTYPE svg PUBLIC "-//W3C//DTD SVG 1.1//EN"
 "http://www.w3.org/Graphics/SVG/1.1/DTD/svg11.dtd">
<!-- Generated by graphviz version 2.43.0 (0)
 -->
<!-- Title: instances Pages: 1 -->
<svg width="366pt" height="348pt"
 viewBox="0.00 0.00 366.00 348.00" xmlns="http://www.w3.org/2000/svg" xmlns:xlink="http://www.w3.org/1999/xlink">
<g id="graph0" class="graph" transform="scale(1 1) rotate(0) translate(4 344)">
<title>instances</title>
<polygon fill="transparent" stroke="transparent" points="-4,4 -4,-344 362,-344 362,4 -4,4"/>
<g id="clust1" class="cluster">
<title>cluster_0</title>
<path fill="none" stroke="grey" d="M20,-8C20,-8 84,-8 84,-8 90,-8 96,-14 96,-20 96,-20 96,-212 96,-212 96,-218 90,-224 84,-224 84,-224 20,-224 20,-224 14,-224 8,-218 8,-212 8,-212 8,-20 8,-20 8,-14 14,-8 20,-8"/>
<text text-anchor="middle" x="52" y="-42.8" font-family="Times,serif" font-size="14.00" fill="grey">instance</text>
<text text-anchor="middle" x="52" y="-28.8" font-family="Times,serif" font-size="14.00" fill="grey">attribute</text>
<text text-anchor="middle" x="52" y="-14.8" font-family="Times,serif" font-size="14.00" fill="grey">override</text>
</g>
<!-- parent -->
<g id="node1" class="node">
<title>parent</title>
<path fill="none" stroke="black" d="M159.33,-252.5C159.33,-252.5 214.67,-252.5 214.67,-252.5 218.83,-252.5 223,-256.67 223,-260.83 223,-260.83 223,-269.17 223,-269.17 223,-273.33 218.83,-277.5 214.67,-277.5 214.67,-277.5 159.33,-277.5 159.33,-277.5 155.17,-277.5 151,-273.33 151,-269.17 151,-269.17 151,-260.83 151,-260.83 151,-256.67 155.17,-252.5 159.33,-252.5"/>
<text text-anchor="middle" x="186.71" y="-260.8" font-family="Times,serif" font-size="14.00">transform</text>
</g>
<!-- root -->
<g id="node2" class="node">
<title>root</title>
<path fill="#99d2f2" stroke="black" d="M159.33,-314.5C159.33,-314.5 214.67,-314.5 214.67,-314.5 218.83,-314.5 223,-318.67 223,-322.83 223,-322.83 223,-331.17 223,-331.17 223,-335.33 218.83,-339.5 214.67,-339.5 214.67,-339.5 159.33,-339.5 159.33,-339.5 155.17,-339.5 151,-335.33 151,-331.17 151,-331.17 151,-322.83 151,-322.83 151,-318.67 155.17,-314.5 159.33,-314.5"/>
<text text-anchor="middle" x="186.53" y="-322.8" font-family="Times,serif" font-size="14.00">.root</text>
</g>
<!-- parent&#45;&gt;root -->
<g id="edge1" class="edge">
<title>parent&#45;&gt;root</title>
<path fill="none" stroke="black" d="M187,-277.57C187,-285.12 187,-295.22 187,-304.24"/>
<polygon fill="black" stroke="black" points="183.5,-304.47 187,-314.47 190.5,-304.47 183.5,-304.47"/>
</g>
<!-- geometry -->
<g id="node3" class="node">
<title>geometry</title>
<path fill="#ffc374" stroke="black" d="M114.33,-128.5C114.33,-128.5 169.67,-128.5 169.67,-128.5 173.83,-128.5 178,-132.67 178,-136.83 178,-136.83 178,-145.17 178,-145.17 178,-149.33 173.83,-153.5 169.67,-153.5 169.67,-153.5 114.33,-153.5 114.33,-153.5 110.17,-153.5 106,-149.33 106,-145.17 106,-145.17 106,-136.83 106,-136.83 106,-132.67 110.17,-128.5 114.33,-128.5"/>
<text text-anchor="middle" x="141.93" y="-136.8" font-family="Times,serif" font-size="14.00">geometry</text>
</g>
<!-- transform1 -->
<g id="node4" class="node">
<title>transform1</title>
<path fill="none" stroke="black" d="M24.33,-190.5C24.33,-190.5 79.67,-190.5 79.67,-190.5 83.83,-190.5 88,-194.67 88,-198.83 88,-198.83 88,-207.17 88,-207.17 88,-211.33 83.83,-215.5 79.67,-215.5 79.67,-215.5 24.33,-215.5 24.33,-215.5 20.17,-215.5 16,-211.33 16,-207.17 16,-207.17 16,-198.83 16,-198.83 16,-194.67 20.17,-190.5 24.33,-190.5"/>
<text text-anchor="middle" x="51.71" y="-198.8" font-family="Times,serif" font-size="14.00">transform</text>
</g>
<!-- geometry&#45;&gt;transform1 -->
<g id="edge2" class="edge">
<title>geometry&#45;&gt;transform1</title>
<path fill="none" stroke="black" d="M124.65,-153.57C111.32,-162.45 92.72,-174.85 77.68,-184.88"/>
<polygon fill="black" stroke="black" points="75.68,-182.01 69.3,-190.47 79.56,-187.83 75.68,-182.01"/>
</g>
<!-- transform2 -->
<g id="node5" class="node">
<title>transform2</title>
<path fill="none" stroke="black" d="M114.33,-190.5C114.33,-190.5 169.67,-190.5 169.67,-190.5 173.83,-190.5 178,-194.67 178,-198.83 178,-198.83 178,-207.17 178,-207.17 178,-211.33 173.83,-215.5 169.67,-215.5 169.67,-215.5 114.33,-215.5 114.33,-215.5 110.17,-215.5 106,-211.33 106,-207.17 106,-207.17 106,-198.83 106,-198.83 106,-194.67 110.17,-190.5 114.33,-190.5"/>
<text text-anchor="middle" x="141.71" y="-198.8" font-family="Times,serif" font-size="14.00">transform</text>
</g>
<!-- geometry&#45;&gt;transform2 -->
<g id="edge4" class="edge">
<title>geometry&#45;&gt;transform2</title>
<path fill="none" stroke="black" d="M142,-153.57C142,-161.12 142,-171.22 142,-180.24"/>
<polygon fill="black" stroke="black" points="138.5,-180.47 142,-190.47 145.5,-180.47 138.5,-180.47"/>
</g>
<!-- transform3 -->
<g id="node6" class="node">
<title>transform3</title>
<path fill="none" stroke="black" d="M204.33,-190.5C204.33,-190.5 259.67,-190.5 259.67,-190.5 263.83,-190.5 268,-194.67 268,-198.83 268,-198.83 268,-207.17 268,-207.17 268,-211.33 263.83,-215.5 259.67,-215.5 259.67,-215.5 204.33,-215.5 204.33,-215.5 200.17,-215.5 196,-211.33 196,-207.17 196,-207.17 196,-198.83 196,-198.83 196,-194.67 200.17,-190.5 204.33,-190.5"/>
<text text-anchor="middle" x="231.71" y="-198.8" font-family="Times,serif" font-size="14.00">transform</text>
</g>
<!-- geometry&#45;&gt;transform3 -->
<g id="edge6" class="edge">
<title>geometry&#45;&gt;transform3</title>
<path fill="none" stroke="black" d="M159.35,-153.57C172.68,-162.45 191.28,-174.85 206.32,-184.88"/>
<polygon fill="black" stroke="black" points="204.44,-187.83 214.7,-190.47 208.32,-182.01 204.44,-187.83"/>
</g>
<!-- transform1&#45;&gt;parent -->
<g id="edge3" class="edge">
<title>transform1&#45;&gt;parent:w</title>
<path fill="none" stroke="black" d="M62.14,-215.76C77.09,-231.83 106.82,-259.21 139.7,-264.21"/>
<polygon fill="black" stroke="black" points="139.76,-267.72 150,-265 140.3,-260.74 139.76,-267.72"/>
</g>
<!-- transform2&#45;&gt;parent -->
<g id="edge5" class="edge">
<title>transform2&#45;&gt;parent</title>
<path fill="none" stroke="black" d="M150.68,-215.57C156.78,-223.7 165.09,-234.79 172.23,-244.3"/>
<polygon fill="black" stroke="black" points="169.55,-246.57 178.35,-252.47 175.15,-242.37 169.55,-246.57"/>
</g>
<!-- transform3&#45;&gt;parent -->
<g id="edge7" class="edge">
<title>transform3&#45;&gt;parent</title>
<path fill="none" stroke="black" d="M223.32,-215.57C217.22,-223.7 208.91,-234.79 201.77,-244.3"/>
<polygon fill="black" stroke="black" points="198.85,-242.37 195.65,-252.47 204.45,-246.57 198.85,-242.37"/>
</g>
<!-- shader -->
<g id="node7" class="node">
<title>shader</title>
<path fill="#a3d977" stroke="black" d="M294.33,-128.5C294.33,-128.5 349.67,-128.5 349.67,-128.5 353.83,-128.5 358,-132.67 358,-136.83 358,-136.83 358,-145.17 358,-145.17 358,-149.33 353.83,-153.5 349.67,-153.5 349.67,-153.5 294.33,-153.5 294.33,-153.5 290.17,-153.5 286,-149.33 286,-145.17 286,-145.17 286,-136.83 286,-136.83 286,-132.67 290.17,-128.5 294.33,-128.5"/>
<text text-anchor="middle" x="321.55" y="-136.8" font-family="Times,serif" font-size="14.00">metal</text>
</g>
<!-- attributes -->
<g id="node8" class="node">
<title>attributes</title>
<path fill="#ccccfc" stroke="black" d="M294.33,-190.5C294.33,-190.5 349.67,-190.5 349.67,-190.5 353.83,-190.5 358,-194.67 358,-198.83 358,-198.83 358,-207.17 358,-207.17 358,-211.33 353.83,-215.5 349.67,-215.5 349.67,-215.5 294.33,-215.5 294.33,-215.5 290.17,-215.5 286,-211.33 286,-207.17 286,-207.17 286,-198.83 286,-198.83 286,-194.67 290.17,-190.5 294.33,-190.5"/>
<text text-anchor="middle" x="321.55" y="-198.8" font-family="Times,serif" font-size="14.00">attributes</text>
</g>
<!-- shader&#45;&gt;attributes -->
<g id="edge8" class="edge">
<title>shader&#45;&gt;attributes</title>
<path fill="none" stroke="black" d="M322,-153.57C322,-161.12 322,-171.22 322,-180.24"/>
<polygon fill="black" stroke="black" points="318.5,-180.47 322,-190.47 325.5,-180.47 318.5,-180.47"/>
</g>
<!-- attributes&#45;&gt;parent -->
<g id="edge9" class="edge">
<title>attributes&#45;&gt;parent:e</title>
<path fill="none" stroke="black" d="M311.86,-215.76C296.91,-231.83 267.18,-259.21 234.3,-264.21"/>
<polygon fill="black" stroke="black" points="233.7,-260.74 224,-265 234.24,-267.72 233.7,-260.74"/>
</g>
<!-- shader2 -->
<g id="node9" class="node">
<title>shader2</title>
<path fill="#a3d977" stroke="black" d="M24.33,-66.5C24.33,-66.5 79.67,-66.5 79.67,-66.5 83.83,-66.5 88,-70.67 88,-74.83 88,-74.83 88,-83.17 88,-83.17 88,-87.33 83.83,-91.5 79.67,-91.5 79.67,-91.5 24.33,-91.5 24.33,-91.5 20.17,-91.5 16,-87.33 16,-83.17 16,-83.17 16,-74.83 16,-74.83 16,-70.67 20.17,-66.5 24.33,-66.5"/>
<text text-anchor="middle" x="51.77" y="-74.8" font-family="Times,serif" font-size="14.00">plastic</text>
</g>
<!-- override -->
<g id="node10" class="node">
<title>override</title>
<path fill="#ccccfc" stroke="black" d="M24.33,-128.5C24.33,-128.5 79.67,-128.5 79.67,-128.5 83.83,-128.5 88,-132.67 88,-136.83 88,-136.83 88,-145.17 88,-145.17 88,-149.33 83.83,-153.5 79.67,-153.5 79.67,-153.5 24.33,-153.5 24.33,-153.5 20.17,-153.5 16,-149.33 16,-145.17 16,-145.17 16,-136.83 16,-136.83 16,-132.67 20.17,-128.5 24.33,-128.5"/>
<text text-anchor="middle" x="51.55" y="-136.8" font-family="Times,serif" font-size="14.00">attributes</text>
</g>
<!-- shader2&#45;&gt;override -->
<g id="edge10" class="edge">
<title>shader2&#45;&gt;override</title>
<path fill="none" stroke="black" d="M52,-91.57C52,-99.12 52,-109.22 52,-118.24"/>
<polygon fill="black" stroke="black" points="48.5,-118.47 52,-128.47 55.5,-118.47 48.5,-118.47"/>
</g>
<!-- override&#45;&gt;transform1 -->
<g id="edge11" class="edge">
<title>override&#45;&gt;transform1</title>
<path fill="none" stroke="black" d="M52,-153.57C52,-161.12 52,-171.22 52,-180.24"/>
<polygon fill="black" stroke="black" points="48.5,-180.47 52,-190.47 55.5,-180.47 48.5,-180.47"/>
</g>
</g>
</svg>
