<?xml version="1.0" encoding="UTF-8" standalone="no"?>
<!DOCTYPE svg PUBLIC "-//W3C//DTD SVG 1.1//EN"
 "http://www.w3.org/Graphics/SVG/1.1/DTD/svg11.dtd">
<!-- Generated by graphviz version 2.43.0 (0)
 -->
<!-- Title: attribute_inheritance Pages: 1 -->
<svg width="472pt" height="350pt"
 viewBox="0.00 0.00 472.00 350.00" xmlns="http://www.w3.org/2000/svg" xmlns:xlink="http://www.w3.org/1999/xlink">
<g id="graph0" class="graph" transform="scale(1 1) rotate(0) translate(4 346)">
<title>attribute_inheritance</title>
<polygon fill="white" stroke="transparent" points="-4,4 -4,-346 468,-346 468,4 -4,4"/>
<g id="clust1" class="cluster">
<title>cluster_0</title>
<path fill="none" stroke="grey" d="M20,-8C20,-8 84,-8 84,-8 90,-8 96,-14 96,-20 96,-20 96,-214 96,-214 96,-220 90,-226 84,-226 84,-226 20,-226 20,-226 14,-226 8,-220 8,-214 8,-214 8,-20 8,-20 8,-14 14,-8 20,-8"/>
<text text-anchor="middle" x="52" y="-28.8" font-family="Times,serif" font-size="14.00" fill="grey">attribute</text>
<text text-anchor="middle" x="52" y="-14.8" font-family="Times,serif" font-size="14.00" fill="grey">override</text>
</g>
<g id="clust2" class="cluster">
<title>cluster_1</title>
<path fill="none" stroke="grey" d="M380,-86C380,-86 444,-86 444,-86 450,-86 456,-92 456,-98 456,-98 456,-214 456,-214 456,-220 450,-226 444,-226 444,-226 380,-226 380,-226 374,-226 368,-220 368,-214 368,-214 368,-98 368,-98 368,-92 374,-86 380,-86"/>
<text text-anchor="middle" x="412" y="-106.8" font-family="Times,serif" font-size="14.00" fill="grey">attribute</text>
<text text-anchor="middle" x="412" y="-92.8" font-family="Times,serif" font-size="14.00" fill="grey">inheritance</text>
</g>
<!-- parent -->
<g id="node1" class="node">
<title>parent</title>
<path fill="none" stroke="black" d="M249.33,-254.5C249.33,-254.5 304.67,-254.5 304.67,-254.5 308.83,-254.5 313,-258.67 313,-262.83 313,-262.83 313,-271.17 313,-271.17 313,-275.33 308.83,-279.5 304.67,-279.5 304.67,-279.5 249.33,-279.5 249.33,-279.5 245.17,-279.5 241,-275.33 241,-271.17 241,-271.17 241,-262.83 241,-262.83 241,-258.67 245.17,-254.5 249.33,-254.5"/>
<text text-anchor="middle" x="276.71" y="-262.8" font-family="Times,serif" font-size="14.00">transform</text>
</g>
<!-- root -->
<g id="node2" class="node">
<title>root</title>
<path fill="#99d2f2" stroke="black" d="M249.33,-316.5C249.33,-316.5 304.67,-316.5 304.67,-316.5 308.83,-316.5 313,-320.67 313,-324.83 313,-324.83 313,-333.17 313,-333.17 313,-337.33 308.83,-341.5 304.67,-341.5 304.67,-341.5 249.33,-341.5 249.33,-341.5 245.17,-341.5 241,-337.33 241,-333.17 241,-333.17 241,-324.83 241,-324.83 241,-320.67 245.17,-316.5 249.33,-316.5"/>
<text text-anchor="middle" x="276.53" y="-324.8" font-family="Times,serif" font-size="14.00">.root</text>
</g>
<!-- parent&#45;&gt;root -->
<g id="edge1" class="edge">
<title>parent&#45;&gt;root</title>
<path fill="none" stroke="black" d="M277,-279.57C277,-287.12 277,-297.22 277,-306.24"/>
<polygon fill="black" stroke="black" points="273.5,-306.47 277,-316.47 280.5,-306.47 273.5,-306.47"/>
</g>
<!-- geometry -->
<g id="node3" class="node">
<title>geometry</title>
<path fill="#ffc374" stroke="black" d="M114.33,-130.5C114.33,-130.5 169.67,-130.5 169.67,-130.5 173.83,-130.5 178,-134.67 178,-138.83 178,-138.83 178,-147.17 178,-147.17 178,-151.33 173.83,-155.5 169.67,-155.5 169.67,-155.5 114.33,-155.5 114.33,-155.5 110.17,-155.5 106,-151.33 106,-147.17 106,-147.17 106,-138.83 106,-138.83 106,-134.67 110.17,-130.5 114.33,-130.5"/>
<text text-anchor="middle" x="141.93" y="-138.8" font-family="Times,serif" font-size="14.00">geometry</text>
</g>
<!-- transform1 -->
<g id="node4" class="node">
<title>transform1</title>
<path fill="none" stroke="black" d="M24.33,-192.5C24.33,-192.5 79.67,-192.5 79.67,-192.5 83.83,-192.5 88,-196.67 88,-200.83 88,-200.83 88,-209.17 88,-209.17 88,-213.33 83.83,-217.5 79.67,-217.5 79.67,-217.5 24.33,-217.5 24.33,-217.5 20.17,-217.5 16,-213.33 16,-209.17 16,-209.17 16,-200.83 16,-200.83 16,-196.67 20.17,-192.5 24.33,-192.5"/>
<text text-anchor="middle" x="51.71" y="-200.8" font-family="Times,serif" font-size="14.00">transform</text>
</g>
<!-- geometry&#45;&gt;transform1 -->
<g id="edge2" class="edge">
<title>geometry&#45;&gt;transform1</title>
<path fill="none" stroke="black" d="M124.65,-155.57C111.32,-164.45 92.72,-176.85 77.68,-186.88"/>
<polygon fill="black" stroke="black" points="75.68,-184.01 69.3,-192.47 79.56,-189.83 75.68,-184.01"/>
</g>
<!-- transform1&#45;&gt;parent -->
<g id="edge3" class="edge">
<title>transform1&#45;&gt;parent:w</title>
<path fill="none" stroke="black" d="M72.99,-217.62C105.19,-234.38 169.44,-263.7 229.94,-266.74"/>
<polygon fill="black" stroke="black" points="229.91,-270.24 240,-267 230.09,-263.25 229.91,-270.24"/>
</g>
<!-- geometry2 -->
<g id="node5" class="node">
<title>geometry2</title>
<path fill="#ffc374" stroke="black" d="M204.33,-130.5C204.33,-130.5 259.67,-130.5 259.67,-130.5 263.83,-130.5 268,-134.67 268,-138.83 268,-138.83 268,-147.17 268,-147.17 268,-151.33 263.83,-155.5 259.67,-155.5 259.67,-155.5 204.33,-155.5 204.33,-155.5 200.17,-155.5 196,-151.33 196,-147.17 196,-147.17 196,-138.83 196,-138.83 196,-134.67 200.17,-130.5 204.33,-130.5"/>
<text text-anchor="middle" x="231.93" y="-138.8" font-family="Times,serif" font-size="14.00">geometry</text>
</g>
<!-- transform2 -->
<g id="node6" class="node">
<title>transform2</title>
<path fill="none" stroke="black" d="M204.33,-192.5C204.33,-192.5 259.67,-192.5 259.67,-192.5 263.83,-192.5 268,-196.67 268,-200.83 268,-200.83 268,-209.17 268,-209.17 268,-213.33 263.83,-217.5 259.67,-217.5 259.67,-217.5 204.33,-217.5 204.33,-217.5 200.17,-217.5 196,-213.33 196,-209.17 196,-209.17 196,-200.83 196,-200.83 196,-196.67 200.17,-192.5 204.33,-192.5"/>
<text text-anchor="middle" x="231.71" y="-200.8" font-family="Times,serif" font-size="14.00">transform</text>
</g>
<!-- geometry2&#45;&gt;transform2 -->
<g id="edge4" class="edge">
<title>geometry2&#45;&gt;transform2</title>
<path fill="none" stroke="black" d="M232,-155.57C232,-163.12 232,-173.22 232,-182.24"/>
<polygon fill="black" stroke="black" points="228.5,-182.47 232,-192.47 235.5,-182.47 228.5,-182.47"/>
</g>
<!-- transform2&#45;&gt;parent -->
<g id="edge5" class="edge">
<title>transform2&#45;&gt;parent</title>
<path fill="none" stroke="black" d="M240.68,-217.57C246.78,-225.7 255.09,-236.79 262.23,-246.3"/>
<polygon fill="black" stroke="black" points="259.55,-248.57 268.35,-254.47 265.15,-244.37 259.55,-248.57"/>
</g>
<!-- geometry3 -->
<g id="node7" class="node">
<title>geometry3</title>
<path fill="#ffc374" stroke="black" d="M294.33,-130.5C294.33,-130.5 349.67,-130.5 349.67,-130.5 353.83,-130.5 358,-134.67 358,-138.83 358,-138.83 358,-147.17 358,-147.17 358,-151.33 353.83,-155.5 349.67,-155.5 349.67,-155.5 294.33,-155.5 294.33,-155.5 290.17,-155.5 286,-151.33 286,-147.17 286,-147.17 286,-138.83 286,-138.83 286,-134.67 290.17,-130.5 294.33,-130.5"/>
<text text-anchor="middle" x="321.93" y="-138.8" font-family="Times,serif" font-size="14.00">geometry</text>
</g>
<!-- transform3 -->
<g id="node8" class="node">
<title>transform3</title>
<path fill="none" stroke="black" d="M294.33,-192.5C294.33,-192.5 349.67,-192.5 349.67,-192.5 353.83,-192.5 358,-196.67 358,-200.83 358,-200.83 358,-209.17 358,-209.17 358,-213.33 353.83,-217.5 349.67,-217.5 349.67,-217.5 294.33,-217.5 294.33,-217.5 290.17,-217.5 286,-213.33 286,-209.17 286,-209.17 286,-200.83 286,-200.83 286,-196.67 290.17,-192.5 294.33,-192.5"/>
<text text-anchor="middle" x="321.71" y="-200.8" font-family="Times,serif" font-size="14.00">transform</text>
</g>
<!-- geometry3&#45;&gt;transform3 -->
<g id="edge6" class="edge">
<title>geometry3&#45;&gt;transform3</title>
<path fill="none" stroke="black" d="M322,-155.57C322,-163.12 322,-173.22 322,-182.24"/>
<polygon fill="black" stroke="black" points="318.5,-182.47 322,-192.47 325.5,-182.47 318.5,-182.47"/>
</g>
<!-- transform3&#45;&gt;parent -->
<g id="edge7" class="edge">
<title>transform3&#45;&gt;parent</title>
<path fill="none" stroke="black" d="M313.32,-217.57C307.22,-225.7 298.91,-236.79 291.77,-246.3"/>
<polygon fill="black" stroke="black" points="288.85,-244.37 285.65,-254.47 294.45,-248.57 288.85,-244.37"/>
</g>
<!-- shader2 -->
<g id="node9" class="node">
<title>shader2</title>
<path fill="#a3d977" stroke="black" d="M24.33,-52.5C24.33,-52.5 79.67,-52.5 79.67,-52.5 83.83,-52.5 88,-56.67 88,-60.83 88,-60.83 88,-69.17 88,-69.17 88,-73.33 83.83,-77.5 79.67,-77.5 79.67,-77.5 24.33,-77.5 24.33,-77.5 20.17,-77.5 16,-73.33 16,-69.17 16,-69.17 16,-60.83 16,-60.83 16,-56.67 20.17,-52.5 24.33,-52.5"/>
<text text-anchor="middle" x="51.77" y="-60.8" font-family="Times,serif" font-size="14.00">plastic</text>
</g>
<!-- override -->
<g id="node10" class="node">
<title>override</title>
<path fill="#ccccfc" stroke="black" d="M24.33,-130.5C24.33,-130.5 79.67,-130.5 79.67,-130.5 83.83,-130.5 88,-134.67 88,-138.83 88,-138.83 88,-147.17 88,-147.17 88,-151.33 83.83,-155.5 79.67,-155.5 79.67,-155.5 24.33,-155.5 24.33,-155.5 20.17,-155.5 16,-151.33 16,-147.17 16,-147.17 16,-138.83 16,-138.83 16,-134.67 20.17,-130.5 24.33,-130.5"/>
<text text-anchor="middle" x="51.55" y="-138.8" font-family="Times,serif" font-size="14.00">attributes</text>
</g>
<!-- shader2&#45;&gt;override -->
<g id="edge8" class="edge">
<title>shader2&#45;&gt;override</title>
<path fill="none" stroke="black" d="M52,-77.54C52,-88.81 52,-106.25 52,-120.15"/>
<polygon fill="black" stroke="black" points="48.5,-120.35 52,-130.35 55.5,-120.35 48.5,-120.35"/>
</g>
<!-- override&#45;&gt;transform1 -->
<g id="edge9" class="edge">
<title>override&#45;&gt;transform1</title>
<path fill="none" stroke="black" d="M52,-155.57C52,-163.12 52,-173.22 52,-182.24"/>
<polygon fill="black" stroke="black" points="48.5,-182.47 52,-192.47 55.5,-182.47 48.5,-182.47"/>
</g>
<!-- shader -->
<g id="node11" class="node">
<title>shader</title>
<path fill="#a3d977" stroke="black" d="M384.33,-130.5C384.33,-130.5 439.67,-130.5 439.67,-130.5 443.83,-130.5 448,-134.67 448,-138.83 448,-138.83 448,-147.17 448,-147.17 448,-151.33 443.83,-155.5 439.67,-155.5 439.67,-155.5 384.33,-155.5 384.33,-155.5 380.17,-155.5 376,-151.33 376,-147.17 376,-147.17 376,-138.83 376,-138.83 376,-134.67 380.17,-130.5 384.33,-130.5"/>
<text text-anchor="middle" x="411.55" y="-138.8" font-family="Times,serif" font-size="14.00">metal</text>
</g>
<!-- attributes -->
<g id="node12" class="node">
<title>attributes</title>
<path fill="#ccccfc" stroke="black" d="M384.33,-192.5C384.33,-192.5 439.67,-192.5 439.67,-192.5 443.83,-192.5 448,-196.67 448,-200.83 448,-200.83 448,-209.17 448,-209.17 448,-213.33 443.83,-217.5 439.67,-217.5 439.67,-217.5 384.33,-217.5 384.33,-217.5 380.17,-217.5 376,-213.33 376,-209.17 376,-209.17 376,-200.83 376,-200.83 376,-196.67 380.17,-192.5 384.33,-192.5"/>
<text text-anchor="middle" x="411.55" y="-200.8" font-family="Times,serif" font-size="14.00">attributes</text>
</g>
<!-- shader&#45;&gt;attributes -->
<g id="edge10" class="edge">
<title>shader&#45;&gt;attributes</title>
<path fill="none" stroke="black" d="M412,-155.57C412,-163.12 412,-173.22 412,-182.24"/>
<polygon fill="black" stroke="black" points="408.5,-182.47 412,-192.47 415.5,-182.47 408.5,-182.47"/>
</g>
<!-- attributes&#45;&gt;parent -->
<g id="edge11" class="edge">
<title>attributes&#45;&gt;parent:e</title>
<path fill="none" stroke="black" d="M401.86,-217.76C386.91,-233.83 357.18,-261.21 324.3,-266.21"/>
<polygon fill="black" stroke="black" points="323.7,-262.74 314,-267 324.24,-269.72 323.7,-262.74"/>
</g>
</g>
</svg>
