<?xml version="1.0" encoding="UTF-8" standalone="no"?>
<!DOCTYPE svg PUBLIC "-//W3C//DTD SVG 1.1//EN"
 "http://www.w3.org/Graphics/SVG/1.1/DTD/svg11.dtd">
<!-- Generated by graphviz version 2.43.0 (0)
 -->
<!-- Title: authors Pages: 1 -->
<svg width="350pt" height="220pt"
 viewBox="0.00 0.00 350.00 220.00" xmlns="http://www.w3.org/2000/svg" xmlns:xlink="http://www.w3.org/1999/xlink">
<g id="graph0" class="graph" transform="scale(1 1) rotate(0) translate(4 216)">
<title>authors</title>
<polygon fill="transparent" stroke="transparent" points="-4,4 -4,-216 346,-216 346,4 -4,4"/>
<!-- parent -->
<g id="node1" class="node">
<title>parent</title>
<path fill="none" stroke="black" d="M188.33,-124.5C188.33,-124.5 243.67,-124.5 243.67,-124.5 247.83,-124.5 252,-128.67 252,-132.83 252,-132.83 252,-141.17 252,-141.17 252,-145.33 247.83,-149.5 243.67,-149.5 243.67,-149.5 188.33,-149.5 188.33,-149.5 184.17,-149.5 180,-145.33 180,-141.17 180,-141.17 180,-132.83 180,-132.83 180,-128.67 184.17,-124.5 188.33,-124.5"/>
<text text-anchor="middle" x="215.85" y="-132.8" font-family="Helvetica,sans-Serif" font-size="14.00">authors</text>
</g>
<!-- root -->
<g id="node2" class="node">
<title>root</title>
<path fill="#99d2f2" stroke="black" d="M188.33,-186.5C188.33,-186.5 243.67,-186.5 243.67,-186.5 247.83,-186.5 252,-190.67 252,-194.83 252,-194.83 252,-203.17 252,-203.17 252,-207.33 247.83,-211.5 243.67,-211.5 243.67,-211.5 188.33,-211.5 188.33,-211.5 184.17,-211.5 180,-207.33 180,-203.17 180,-203.17 180,-194.83 180,-194.83 180,-190.67 184.17,-186.5 188.33,-186.5"/>
<text text-anchor="middle" x="215.67" y="-194.8" font-family="Helvetica,sans-Serif" font-size="14.00">NSI</text>
</g>
<!-- parent&#45;&gt;root -->
<g id="edge1" class="edge">
<title>parent&#45;&gt;root</title>
<path fill="none" stroke="black" d="M216,-149.57C216,-157.12 216,-167.22 216,-176.24"/>
<polygon fill="black" stroke="black" points="212.5,-176.47 216,-186.47 219.5,-176.47 212.5,-176.47"/>
</g>
<!-- olivier -->
<g id="node3" class="node">
<title>olivier</title>
<path fill="#a3d977" stroke="black" d="M8.33,-0.5C8.33,-0.5 63.67,-0.5 63.67,-0.5 67.83,-0.5 72,-4.67 72,-8.83 72,-8.83 72,-17.17 72,-17.17 72,-21.33 67.83,-25.5 63.67,-25.5 63.67,-25.5 8.33,-25.5 8.33,-25.5 4.17,-25.5 0,-21.33 0,-17.17 0,-17.17 0,-8.83 0,-8.83 0,-4.67 4.17,-0.5 8.33,-0.5"/>
<text text-anchor="middle" x="35.83" y="-8.8" font-family="Helvetica,sans-Serif" font-size="14.00">Olivier</text>
</g>
<!-- _3delight -->
<g id="node4" class="node">
<title>_3delight</title>
<path fill="#ffc374" stroke="black" d="M97.03,-62.5C97.03,-62.5 188.97,-62.5 188.97,-62.5 193.13,-62.5 197.3,-66.67 197.3,-70.83 197.3,-70.83 197.3,-79.17 197.3,-79.17 197.3,-83.33 193.13,-87.5 188.97,-87.5 188.97,-87.5 97.03,-87.5 97.03,-87.5 92.87,-87.5 88.7,-83.33 88.7,-79.17 88.7,-79.17 88.7,-70.83 88.7,-70.83 88.7,-66.67 92.87,-62.5 97.03,-62.5"/>
<text text-anchor="middle" x="143" y="-70.8" font-family="Helvetica,sans-Serif" font-size="14.00">DNA Research</text>
</g>
<!-- olivier&#45;&gt;_3delight -->
<g id="edge2" class="edge">
<title>olivier&#45;&gt;_3delight:w</title>
<path fill="none" stroke="black" d="M39.95,-25.76C45.81,-41.06 58.28,-66.64 78.05,-73.35"/>
<polygon fill="black" stroke="black" points="77.56,-76.81 88,-75 78.71,-69.91 77.56,-76.81"/>
</g>
<!-- _3delight&#45;&gt;parent -->
<g id="edge5" class="edge">
<title>_3delight&#45;&gt;parent:w</title>
<path fill="none" stroke="black" d="M144.57,-87.76C147.17,-102.58 153.67,-127.03 168.95,-134.66"/>
<polygon fill="black" stroke="black" points="168.47,-138.14 179,-137 170.06,-131.32 168.47,-138.14"/>
</g>
<!-- aghiles -->
<g id="node5" class="node">
<title>aghiles</title>
<path fill="#a3d977" stroke="black" d="M98.33,-0.5C98.33,-0.5 153.67,-0.5 153.67,-0.5 157.83,-0.5 162,-4.67 162,-8.83 162,-8.83 162,-17.17 162,-17.17 162,-21.33 157.83,-25.5 153.67,-25.5 153.67,-25.5 98.33,-25.5 98.33,-25.5 94.17,-25.5 90,-21.33 90,-17.17 90,-17.17 90,-8.83 90,-8.83 90,-4.67 94.17,-0.5 98.33,-0.5"/>
<text text-anchor="middle" x="125.96" y="-8.8" font-family="Helvetica,sans-Serif" font-size="14.00">Aghiles</text>
</g>
<!-- aghiles&#45;&gt;_3delight -->
<g id="edge3" class="edge">
<title>aghiles&#45;&gt;_3delight</title>
<path fill="none" stroke="black" d="M129.28,-25.57C131.46,-33.29 134.41,-43.67 137,-52.83"/>
<polygon fill="black" stroke="black" points="133.64,-53.8 139.73,-62.47 140.37,-51.89 133.64,-53.8"/>
</g>
<!-- francois -->
<g id="node6" class="node">
<title>francois</title>
<path fill="#a3d977" stroke="black" d="M188.33,-0.5C188.33,-0.5 243.67,-0.5 243.67,-0.5 247.83,-0.5 252,-4.67 252,-8.83 252,-8.83 252,-17.17 252,-17.17 252,-21.33 247.83,-25.5 243.67,-25.5 243.67,-25.5 188.33,-25.5 188.33,-25.5 184.17,-25.5 180,-21.33 180,-17.17 180,-17.17 180,-8.83 180,-8.83 180,-4.67 184.17,-0.5 188.33,-0.5"/>
<text text-anchor="middle" x="215.84" y="-8.8" font-family="Helvetica,sans-Serif" font-size="14.00">Francois</text>
</g>
<!-- francois&#45;&gt;_3delight -->
<g id="edge4" class="edge">
<title>francois&#45;&gt;_3delight:e</title>
<path fill="none" stroke="black" d="M217.35,-25.76C218.46,-40.03 218.41,-63.22 207.76,-71.73"/>
<polygon fill="black" stroke="black" points="206.37,-68.51 198,-75 208.59,-75.14 206.37,-68.51"/>
</g>
<!-- berj -->
<g id="node7" class="node">
<title>berj</title>
<path fill="#a3d977" stroke="black" d="M278.33,-0.5C278.33,-0.5 333.67,-0.5 333.67,-0.5 337.83,-0.5 342,-4.67 342,-8.83 342,-8.83 342,-17.17 342,-17.17 342,-21.33 337.83,-25.5 333.67,-25.5 333.67,-25.5 278.33,-25.5 278.33,-25.5 274.17,-25.5 270,-21.33 270,-17.17 270,-17.17 270,-8.83 270,-8.83 270,-4.67 274.17,-0.5 278.33,-0.5"/>
<text text-anchor="middle" x="305.95" y="-8.8" font-family="Helvetica,sans-Serif" font-size="14.00">Berj</text>
</g>
<!-- sohovfx -->
<g id="node8" class="node">
<title>sohovfx</title>
<path fill="#ffc374" stroke="black" d="M257.43,-62.5C257.43,-62.5 320.57,-62.5 320.57,-62.5 324.74,-62.5 328.91,-66.67 328.91,-70.83 328.91,-70.83 328.91,-79.17 328.91,-79.17 328.91,-83.33 324.74,-87.5 320.57,-87.5 320.57,-87.5 257.43,-87.5 257.43,-87.5 253.26,-87.5 249.09,-83.33 249.09,-79.17 249.09,-79.17 249.09,-70.83 249.09,-70.83 249.09,-66.67 253.26,-62.5 257.43,-62.5"/>
<text text-anchor="middle" x="289" y="-70.8" font-family="Helvetica,sans-Serif" font-size="14.00">Soho VFX</text>
</g>
<!-- berj&#45;&gt;sohovfx -->
<g id="edge6" class="edge">
<title>berj&#45;&gt;sohovfx</title>
<path fill="none" stroke="black" d="M302.72,-25.57C300.54,-33.29 297.59,-43.67 295,-52.83"/>
<polygon fill="black" stroke="black" points="291.63,-51.89 292.27,-62.47 298.36,-53.8 291.63,-51.89"/>
</g>
<!-- sohovfx&#45;&gt;parent -->
<g id="edge7" class="edge">
<title>sohovfx&#45;&gt;parent:e</title>
<path fill="none" stroke="black" d="M287.43,-87.76C284.83,-102.58 278.33,-127.03 263.05,-134.66"/>
<polygon fill="black" stroke="black" points="261.94,-131.32 253,-137 263.53,-138.14 261.94,-131.32"/>
</g>
</g>
</svg>
