<?xml version="1.0" encoding="UTF-8" standalone="no"?>
<!DOCTYPE svg PUBLIC "-//W3C//DTD SVG 1.1//EN"
 "http://www.w3.org/Graphics/SVG/1.1/DTD/svg11.dtd">
<!-- Generated by graphviz version 2.43.0 (0)
 -->
<!-- Title: G Pages: 1 -->
<svg width="203pt" height="344pt"
 viewBox="0.00 0.00 202.87 344.00" xmlns="http://www.w3.org/2000/svg" xmlns:xlink="http://www.w3.org/1999/xlink">
<g id="graph0" class="graph" transform="scale(1 1) rotate(0) translate(4 340)">
<title>G</title>
<polygon fill="transparent" stroke="transparent" points="-4,4 -4,-340 198.87,-340 198.87,4 -4,4"/>
<!-- driver -->
<g id="node1" class="node">
<title>driver</title>
<path fill="#cc9ccc" stroke="black" d="M114.49,-0.5C114.49,-0.5 186.53,-0.5 186.53,-0.5 190.7,-0.5 194.87,-4.67 194.87,-8.83 194.87,-8.83 194.87,-17.17 194.87,-17.17 194.87,-21.33 190.7,-25.5 186.53,-25.5 186.53,-25.5 114.49,-25.5 114.49,-25.5 110.33,-25.5 106.16,-21.33 106.16,-17.17 106.16,-17.17 106.16,-8.83 106.16,-8.83 106.16,-4.67 110.33,-0.5 114.49,-0.5"/>
<text text-anchor="middle" x="150.51" y="-8.8" font-family="Times,serif" font-size="14.00">output driver</text>
</g>
<!-- layer -->
<g id="node2" class="node">
<title>layer</title>
<path fill="lightgrey" stroke="black" d="M117.22,-62.5C117.22,-62.5 183.81,-62.5 183.81,-62.5 187.97,-62.5 192.14,-66.67 192.14,-70.83 192.14,-70.83 192.14,-79.17 192.14,-79.17 192.14,-83.33 187.97,-87.5 183.81,-87.5 183.81,-87.5 117.22,-87.5 117.22,-87.5 113.05,-87.5 108.88,-83.33 108.88,-79.17 108.88,-79.17 108.88,-70.83 108.88,-70.83 108.88,-66.67 113.05,-62.5 117.22,-62.5"/>
<text text-anchor="middle" x="150.51" y="-70.8" font-family="Times,serif" font-size="14.00">output layer</text>
</g>
<!-- driver&#45;&gt;layer -->
<g id="edge1" class="edge">
<title>driver&#45;&gt;layer</title>
<path fill="none" stroke="black" d="M150.51,-25.57C150.51,-33.12 150.51,-43.22 150.51,-52.24"/>
<polygon fill="black" stroke="black" points="147.01,-52.47 150.51,-62.47 154.01,-52.47 147.01,-52.47"/>
</g>
<!-- screen -->
<g id="node3" class="node">
<title>screen</title>
<path fill="#ffc2c2" stroke="black" d="M121.85,-124.5C121.85,-124.5 177.18,-124.5 177.18,-124.5 181.35,-124.5 185.51,-128.67 185.51,-132.83 185.51,-132.83 185.51,-141.17 185.51,-141.17 185.51,-145.33 181.35,-149.5 177.18,-149.5 177.18,-149.5 121.85,-149.5 121.85,-149.5 117.68,-149.5 113.51,-145.33 113.51,-141.17 113.51,-141.17 113.51,-132.83 113.51,-132.83 113.51,-128.67 117.68,-124.5 121.85,-124.5"/>
<text text-anchor="middle" x="149.39" y="-132.8" font-family="Times,serif" font-size="14.00">screen</text>
</g>
<!-- layer&#45;&gt;screen -->
<g id="edge2" class="edge">
<title>layer&#45;&gt;screen</title>
<path fill="none" stroke="black" d="M150.32,-87.57C150.19,-95.12 150.03,-105.22 149.87,-114.24"/>
<polygon fill="black" stroke="black" points="146.37,-114.41 149.7,-124.47 153.37,-114.53 146.37,-114.41"/>
</g>
<!-- camera -->
<g id="node4" class="node">
<title>camera</title>
<path fill="#5abaa7" stroke="black" d="M121.85,-186.5C121.85,-186.5 177.18,-186.5 177.18,-186.5 181.35,-186.5 185.51,-190.67 185.51,-194.83 185.51,-194.83 185.51,-203.17 185.51,-203.17 185.51,-207.33 181.35,-211.5 177.18,-211.5 177.18,-211.5 121.85,-211.5 121.85,-211.5 117.68,-211.5 113.51,-207.33 113.51,-203.17 113.51,-203.17 113.51,-194.83 113.51,-194.83 113.51,-190.67 117.68,-186.5 121.85,-186.5"/>
<text text-anchor="middle" x="149.22" y="-194.8" font-family="Times,serif" font-size="14.00">camera</text>
</g>
<!-- screen&#45;&gt;camera -->
<g id="edge3" class="edge">
<title>screen&#45;&gt;camera</title>
<path fill="none" stroke="black" d="M149.51,-149.57C149.51,-157.12 149.51,-167.22 149.51,-176.24"/>
<polygon fill="black" stroke="black" points="146.01,-176.47 149.51,-186.47 153.01,-176.47 146.01,-176.47"/>
</g>
<!-- transform1 -->
<g id="node5" class="node">
<title>transform1</title>
<path fill="none" stroke="black" d="M121.85,-248.5C121.85,-248.5 177.18,-248.5 177.18,-248.5 181.35,-248.5 185.51,-252.67 185.51,-256.83 185.51,-256.83 185.51,-265.17 185.51,-265.17 185.51,-269.33 181.35,-273.5 177.18,-273.5 177.18,-273.5 121.85,-273.5 121.85,-273.5 117.68,-273.5 113.51,-269.33 113.51,-265.17 113.51,-265.17 113.51,-256.83 113.51,-256.83 113.51,-252.67 117.68,-248.5 121.85,-248.5"/>
<text text-anchor="middle" x="149.23" y="-256.8" font-family="Times,serif" font-size="14.00">transform</text>
</g>
<!-- camera&#45;&gt;transform1 -->
<g id="edge4" class="edge">
<title>camera&#45;&gt;transform1</title>
<path fill="none" stroke="black" d="M149.51,-211.57C149.51,-219.12 149.51,-229.22 149.51,-238.24"/>
<polygon fill="black" stroke="black" points="146.01,-238.47 149.51,-248.47 153.01,-238.47 146.01,-238.47"/>
</g>
<!-- root -->
<g id="node6" class="node">
<title>root</title>
<path fill="#99d2f2" stroke="black" d="M75.85,-310.5C75.85,-310.5 131.18,-310.5 131.18,-310.5 135.35,-310.5 139.51,-314.67 139.51,-318.83 139.51,-318.83 139.51,-327.17 139.51,-327.17 139.51,-331.33 135.35,-335.5 131.18,-335.5 131.18,-335.5 75.85,-335.5 75.85,-335.5 71.68,-335.5 67.51,-331.33 67.51,-327.17 67.51,-327.17 67.51,-318.83 67.51,-318.83 67.51,-314.67 71.68,-310.5 75.85,-310.5"/>
<text text-anchor="middle" x="103.04" y="-318.8" font-family="Times,serif" font-size="14.00">.root</text>
</g>
<!-- transform1&#45;&gt;root -->
<g id="edge5" class="edge">
<title>transform1&#45;&gt;root:e</title>
<path fill="none" stroke="black" d="M152.45,-273.76C155.44,-287.75 158.54,-310.32 150.04,-319.22"/>
<polygon fill="black" stroke="black" points="148.52,-316.06 140.51,-323 151.1,-322.56 148.52,-316.06"/>
</g>
<!-- shader -->
<g id="node7" class="node">
<title>shader</title>
<path fill="#a3d977" stroke="black" d="M8.33,-62.5C8.33,-62.5 82.69,-62.5 82.69,-62.5 86.86,-62.5 91.02,-66.67 91.02,-70.83 91.02,-70.83 91.02,-79.17 91.02,-79.17 91.02,-83.33 86.86,-87.5 82.69,-87.5 82.69,-87.5 8.33,-87.5 8.33,-87.5 4.17,-87.5 0,-83.33 0,-79.17 0,-79.17 0,-70.83 0,-70.83 0,-66.67 4.17,-62.5 8.33,-62.5"/>
<text text-anchor="middle" x="45.51" y="-70.8" font-family="Times,serif" font-size="14.00">material (osl)</text>
</g>
<!-- attributes -->
<g id="node8" class="node">
<title>attributes</title>
<path fill="#ccccfc" stroke="black" d="M24.85,-124.5C24.85,-124.5 80.18,-124.5 80.18,-124.5 84.35,-124.5 88.51,-128.67 88.51,-132.83 88.51,-132.83 88.51,-141.17 88.51,-141.17 88.51,-145.33 84.35,-149.5 80.18,-149.5 80.18,-149.5 24.85,-149.5 24.85,-149.5 20.68,-149.5 16.51,-145.33 16.51,-141.17 16.51,-141.17 16.51,-132.83 16.51,-132.83 16.51,-128.67 20.68,-124.5 24.85,-124.5"/>
<text text-anchor="middle" x="52.06" y="-132.8" font-family="Times,serif" font-size="14.00">attributes</text>
</g>
<!-- shader&#45;&gt;attributes -->
<g id="edge6" class="edge">
<title>shader&#45;&gt;attributes</title>
<path fill="none" stroke="black" d="M46.86,-87.57C47.74,-95.12 48.92,-105.22 49.97,-114.24"/>
<polygon fill="black" stroke="black" points="46.53,-114.94 51.17,-124.47 53.48,-114.13 46.53,-114.94"/>
</g>
<!-- geometry -->
<g id="node9" class="node">
<title>geometry</title>
<path fill="#ffc374" stroke="black" d="M28.85,-186.5C28.85,-186.5 84.18,-186.5 84.18,-186.5 88.35,-186.5 92.51,-190.67 92.51,-194.83 92.51,-194.83 92.51,-203.17 92.51,-203.17 92.51,-207.33 88.35,-211.5 84.18,-211.5 84.18,-211.5 28.85,-211.5 28.85,-211.5 24.68,-211.5 20.51,-207.33 20.51,-203.17 20.51,-203.17 20.51,-194.83 20.51,-194.83 20.51,-190.67 24.68,-186.5 28.85,-186.5"/>
<text text-anchor="middle" x="56.45" y="-194.8" font-family="Times,serif" font-size="14.00">geometry</text>
</g>
<!-- attributes&#45;&gt;geometry -->
<g id="edge7" class="edge">
<title>attributes&#45;&gt;geometry</title>
<path fill="none" stroke="black" d="M53.28,-149.57C53.79,-157.12 54.46,-167.22 55.06,-176.24"/>
<polygon fill="black" stroke="black" points="51.59,-176.72 55.74,-186.47 58.57,-176.26 51.59,-176.72"/>
</g>
<!-- transform2 -->
<g id="node10" class="node">
<title>transform2</title>
<path fill="none" stroke="black" d="M30.85,-248.5C30.85,-248.5 86.18,-248.5 86.18,-248.5 90.35,-248.5 94.51,-252.67 94.51,-256.83 94.51,-256.83 94.51,-265.17 94.51,-265.17 94.51,-269.33 90.35,-273.5 86.18,-273.5 86.18,-273.5 30.85,-273.5 30.85,-273.5 26.68,-273.5 22.51,-269.33 22.51,-265.17 22.51,-265.17 22.51,-256.83 22.51,-256.83 22.51,-252.67 26.68,-248.5 30.85,-248.5"/>
<text text-anchor="middle" x="58.23" y="-256.8" font-family="Times,serif" font-size="14.00">transform</text>
</g>
<!-- geometry&#45;&gt;transform2 -->
<g id="edge8" class="edge">
<title>geometry&#45;&gt;transform2</title>
<path fill="none" stroke="black" d="M56.9,-211.57C57.15,-219.12 57.49,-229.22 57.79,-238.24"/>
<polygon fill="black" stroke="black" points="54.3,-238.59 58.13,-248.47 61.29,-238.36 54.3,-238.59"/>
</g>
<!-- transform2&#45;&gt;root -->
<g id="edge9" class="edge">
<title>transform2&#45;&gt;root:w</title>
<path fill="none" stroke="black" d="M55.39,-273.76C52.18,-287.75 48.73,-310.32 57.06,-319.22"/>
<polygon fill="black" stroke="black" points="55.93,-322.53 66.51,-323 58.53,-316.03 55.93,-322.53"/>
</g>
</g>
</svg>
