<?xml version="1.0" encoding="UTF-8" standalone="no"?>
<!DOCTYPE svg PUBLIC "-//W3C//DTD SVG 1.1//EN"
 "http://www.w3.org/Graphics/SVG/1.1/DTD/svg11.dtd">
<!-- Generated by graphviz version 2.43.0 (0)
 -->
<!-- Title: G Pages: 1 -->
<svg width="274pt" height="282pt"
 viewBox="0.00 0.00 274.38 282.00" xmlns="http://www.w3.org/2000/svg" xmlns:xlink="http://www.w3.org/1999/xlink">
<g id="graph0" class="graph" transform="scale(1 1) rotate(0) translate(4 278)">
<title>G</title>
<polygon fill="transparent" stroke="transparent" points="-4,4 -4,-278 270.38,-278 270.38,4 -4,4"/>
<!-- hdrlight -->
<g id="node1" class="node">
<title>hdrlight</title>
<path fill="#a3d977" stroke="black" d="M15.71,-0.5C15.71,-0.5 71.05,-0.5 71.05,-0.5 75.21,-0.5 79.38,-4.67 79.38,-8.83 79.38,-8.83 79.38,-17.17 79.38,-17.17 79.38,-21.33 75.21,-25.5 71.05,-25.5 71.05,-25.5 15.71,-25.5 15.71,-25.5 11.55,-25.5 7.38,-21.33 7.38,-17.17 7.38,-17.17 7.38,-8.83 7.38,-8.83 7.38,-4.67 11.55,-0.5 15.71,-0.5"/>
<text text-anchor="middle" x="43.04" y="-8.8" font-family="Times,serif" font-size="14.00">hdrlight</text>
</g>
<!-- attributes -->
<g id="node2" class="node">
<title>attributes</title>
<path fill="#ccccfc" stroke="black" d="M15.71,-62.5C15.71,-62.5 71.05,-62.5 71.05,-62.5 75.21,-62.5 79.38,-66.67 79.38,-70.83 79.38,-70.83 79.38,-79.17 79.38,-79.17 79.38,-83.33 75.21,-87.5 71.05,-87.5 71.05,-87.5 15.71,-87.5 15.71,-87.5 11.55,-87.5 7.38,-83.33 7.38,-79.17 7.38,-79.17 7.38,-70.83 7.38,-70.83 7.38,-66.67 11.55,-62.5 15.71,-62.5"/>
<text text-anchor="middle" x="42.93" y="-70.8" font-family="Times,serif" font-size="14.00">attributes</text>
</g>
<!-- hdrlight&#45;&gt;attributes -->
<g id="edge1" class="edge">
<title>hdrlight&#45;&gt;attributes</title>
<path fill="none" stroke="black" d="M43.38,-25.57C43.38,-33.12 43.38,-43.22 43.38,-52.24"/>
<polygon fill="black" stroke="black" points="39.88,-52.47 43.38,-62.47 46.88,-52.47 39.88,-52.47"/>
</g>
<!-- environment -->
<g id="node3" class="node">
<title>environment</title>
<path fill="#ffc374" stroke="black" d="M8.33,-124.5C8.33,-124.5 78.43,-124.5 78.43,-124.5 82.59,-124.5 86.76,-128.67 86.76,-132.83 86.76,-132.83 86.76,-141.17 86.76,-141.17 86.76,-145.33 82.59,-149.5 78.43,-149.5 78.43,-149.5 8.33,-149.5 8.33,-149.5 4.17,-149.5 0,-145.33 0,-141.17 0,-141.17 0,-132.83 0,-132.83 0,-128.67 4.17,-124.5 8.33,-124.5"/>
<text text-anchor="middle" x="43.38" y="-132.8" font-family="Times,serif" font-size="14.00">environment</text>
</g>
<!-- attributes&#45;&gt;environment -->
<g id="edge2" class="edge">
<title>attributes&#45;&gt;environment</title>
<path fill="none" stroke="black" d="M43.38,-87.57C43.38,-95.12 43.38,-105.22 43.38,-114.24"/>
<polygon fill="black" stroke="black" points="39.88,-114.47 43.38,-124.47 46.88,-114.47 39.88,-114.47"/>
</g>
<!-- transform1 -->
<g id="node4" class="node">
<title>transform1</title>
<path fill="none" stroke="black" d="M19.71,-186.5C19.71,-186.5 75.05,-186.5 75.05,-186.5 79.21,-186.5 83.38,-190.67 83.38,-194.83 83.38,-194.83 83.38,-203.17 83.38,-203.17 83.38,-207.33 79.21,-211.5 75.05,-211.5 75.05,-211.5 19.71,-211.5 19.71,-211.5 15.55,-211.5 11.38,-207.33 11.38,-203.17 11.38,-203.17 11.38,-194.83 11.38,-194.83 11.38,-190.67 15.55,-186.5 19.71,-186.5"/>
<text text-anchor="middle" x="47.09" y="-194.8" font-family="Times,serif" font-size="14.00">transform</text>
</g>
<!-- environment&#45;&gt;transform1 -->
<g id="edge3" class="edge">
<title>environment&#45;&gt;transform1</title>
<path fill="none" stroke="black" d="M44.15,-149.57C44.65,-157.12 45.33,-167.22 45.93,-176.24"/>
<polygon fill="black" stroke="black" points="42.45,-176.72 46.61,-186.47 49.44,-176.26 42.45,-176.72"/>
</g>
<!-- root -->
<g id="node5" class="node">
<title>root</title>
<path fill="#99d2f2" stroke="black" d="M112.71,-248.5C112.71,-248.5 168.05,-248.5 168.05,-248.5 172.21,-248.5 176.38,-252.67 176.38,-256.83 176.38,-256.83 176.38,-265.17 176.38,-265.17 176.38,-269.33 172.21,-273.5 168.05,-273.5 168.05,-273.5 112.71,-273.5 112.71,-273.5 108.55,-273.5 104.38,-269.33 104.38,-265.17 104.38,-265.17 104.38,-256.83 104.38,-256.83 104.38,-252.67 108.55,-248.5 112.71,-248.5"/>
<text text-anchor="middle" x="139.91" y="-256.8" font-family="Times,serif" font-size="14.00">.root</text>
</g>
<!-- transform1&#45;&gt;root -->
<g id="edge4" class="edge">
<title>transform1&#45;&gt;root:w</title>
<path fill="none" stroke="black" d="M51.9,-211.76C58.55,-227.13 72.49,-252.87 93.32,-259.44"/>
<polygon fill="black" stroke="black" points="92.96,-262.92 103.38,-261 94.03,-256.01 92.96,-262.92"/>
</g>
<!-- arealight -->
<g id="node6" class="node">
<title>arealight</title>
<path fill="#a3d977" stroke="black" d="M112.71,-0.5C112.71,-0.5 168.05,-0.5 168.05,-0.5 172.21,-0.5 176.38,-4.67 176.38,-8.83 176.38,-8.83 176.38,-17.17 176.38,-17.17 176.38,-21.33 172.21,-25.5 168.05,-25.5 168.05,-25.5 112.71,-25.5 112.71,-25.5 108.55,-25.5 104.38,-21.33 104.38,-17.17 104.38,-17.17 104.38,-8.83 104.38,-8.83 104.38,-4.67 108.55,-0.5 112.71,-0.5"/>
<text text-anchor="middle" x="140.37" y="-8.8" font-family="Times,serif" font-size="14.00">arealight</text>
</g>
<!-- attributes2 -->
<g id="node7" class="node">
<title>attributes2</title>
<path fill="#ccccfc" stroke="black" d="M112.71,-62.5C112.71,-62.5 168.05,-62.5 168.05,-62.5 172.21,-62.5 176.38,-66.67 176.38,-70.83 176.38,-70.83 176.38,-79.17 176.38,-79.17 176.38,-83.33 172.21,-87.5 168.05,-87.5 168.05,-87.5 112.71,-87.5 112.71,-87.5 108.55,-87.5 104.38,-83.33 104.38,-79.17 104.38,-79.17 104.38,-70.83 104.38,-70.83 104.38,-66.67 108.55,-62.5 112.71,-62.5"/>
<text text-anchor="middle" x="139.93" y="-70.8" font-family="Times,serif" font-size="14.00">attributes</text>
</g>
<!-- arealight&#45;&gt;attributes2 -->
<g id="edge5" class="edge">
<title>arealight&#45;&gt;attributes2</title>
<path fill="none" stroke="black" d="M140.38,-25.57C140.38,-33.12 140.38,-43.22 140.38,-52.24"/>
<polygon fill="black" stroke="black" points="136.88,-52.47 140.38,-62.47 143.88,-52.47 136.88,-52.47"/>
</g>
<!-- mesh -->
<g id="node8" class="node">
<title>mesh</title>
<path fill="#ffc374" stroke="black" d="M112.71,-124.5C112.71,-124.5 168.05,-124.5 168.05,-124.5 172.21,-124.5 176.38,-128.67 176.38,-132.83 176.38,-132.83 176.38,-141.17 176.38,-141.17 176.38,-145.33 172.21,-149.5 168.05,-149.5 168.05,-149.5 112.71,-149.5 112.71,-149.5 108.55,-149.5 104.38,-145.33 104.38,-141.17 104.38,-141.17 104.38,-132.83 104.38,-132.83 104.38,-128.67 108.55,-124.5 112.71,-124.5"/>
<text text-anchor="middle" x="140.16" y="-132.8" font-family="Times,serif" font-size="14.00">mesh</text>
</g>
<!-- attributes2&#45;&gt;mesh -->
<g id="edge6" class="edge">
<title>attributes2&#45;&gt;mesh</title>
<path fill="none" stroke="black" d="M140.38,-87.57C140.38,-95.12 140.38,-105.22 140.38,-114.24"/>
<polygon fill="black" stroke="black" points="136.88,-114.47 140.38,-124.47 143.88,-114.47 136.88,-114.47"/>
</g>
<!-- transform2 -->
<g id="node9" class="node">
<title>transform2</title>
<path fill="none" stroke="black" d="M112.71,-186.5C112.71,-186.5 168.05,-186.5 168.05,-186.5 172.21,-186.5 176.38,-190.67 176.38,-194.83 176.38,-194.83 176.38,-203.17 176.38,-203.17 176.38,-207.33 172.21,-211.5 168.05,-211.5 168.05,-211.5 112.71,-211.5 112.71,-211.5 108.55,-211.5 104.38,-207.33 104.38,-203.17 104.38,-203.17 104.38,-194.83 104.38,-194.83 104.38,-190.67 108.55,-186.5 112.71,-186.5"/>
<text text-anchor="middle" x="140.09" y="-194.8" font-family="Times,serif" font-size="14.00">transform</text>
</g>
<!-- mesh&#45;&gt;transform2 -->
<g id="edge7" class="edge">
<title>mesh&#45;&gt;transform2</title>
<path fill="none" stroke="black" d="M140.38,-149.57C140.38,-157.12 140.38,-167.22 140.38,-176.24"/>
<polygon fill="black" stroke="black" points="136.88,-176.47 140.38,-186.47 143.88,-176.47 136.88,-176.47"/>
</g>
<!-- transform2&#45;&gt;root -->
<g id="edge8" class="edge">
<title>transform2&#45;&gt;root</title>
<path fill="none" stroke="black" d="M140.38,-211.57C140.38,-219.12 140.38,-229.22 140.38,-238.24"/>
<polygon fill="black" stroke="black" points="136.88,-238.47 140.38,-248.47 143.88,-238.47 136.88,-238.47"/>
</g>
<!-- spotlight -->
<g id="node10" class="node">
<title>spotlight</title>
<path fill="#a3d977" stroke="black" d="M202.71,-0.5C202.71,-0.5 258.05,-0.5 258.05,-0.5 262.21,-0.5 266.38,-4.67 266.38,-8.83 266.38,-8.83 266.38,-17.17 266.38,-17.17 266.38,-21.33 262.21,-25.5 258.05,-25.5 258.05,-25.5 202.71,-25.5 202.71,-25.5 198.55,-25.5 194.38,-21.33 194.38,-17.17 194.38,-17.17 194.38,-8.83 194.38,-8.83 194.38,-4.67 198.55,-0.5 202.71,-0.5"/>
<text text-anchor="middle" x="229.88" y="-8.8" font-family="Times,serif" font-size="14.00">spotlight</text>
</g>
<!-- attributes3 -->
<g id="node11" class="node">
<title>attributes3</title>
<path fill="#ccccfc" stroke="black" d="M202.71,-62.5C202.71,-62.5 258.05,-62.5 258.05,-62.5 262.21,-62.5 266.38,-66.67 266.38,-70.83 266.38,-70.83 266.38,-79.17 266.38,-79.17 266.38,-83.33 262.21,-87.5 258.05,-87.5 258.05,-87.5 202.71,-87.5 202.71,-87.5 198.55,-87.5 194.38,-83.33 194.38,-79.17 194.38,-79.17 194.38,-70.83 194.38,-70.83 194.38,-66.67 198.55,-62.5 202.71,-62.5"/>
<text text-anchor="middle" x="229.93" y="-70.8" font-family="Times,serif" font-size="14.00">attributes</text>
</g>
<!-- spotlight&#45;&gt;attributes3 -->
<g id="edge9" class="edge">
<title>spotlight&#45;&gt;attributes3</title>
<path fill="none" stroke="black" d="M230.38,-25.57C230.38,-33.12 230.38,-43.22 230.38,-52.24"/>
<polygon fill="black" stroke="black" points="226.88,-52.47 230.38,-62.47 233.88,-52.47 226.88,-52.47"/>
</g>
<!-- mesh2 -->
<g id="node12" class="node">
<title>mesh2</title>
<path fill="#ffc374" stroke="black" d="M202.71,-124.5C202.71,-124.5 258.05,-124.5 258.05,-124.5 262.21,-124.5 266.38,-128.67 266.38,-132.83 266.38,-132.83 266.38,-141.17 266.38,-141.17 266.38,-145.33 262.21,-149.5 258.05,-149.5 258.05,-149.5 202.71,-149.5 202.71,-149.5 198.55,-149.5 194.38,-145.33 194.38,-141.17 194.38,-141.17 194.38,-132.83 194.38,-132.83 194.38,-128.67 198.55,-124.5 202.71,-124.5"/>
<text text-anchor="middle" x="230.16" y="-132.8" font-family="Times,serif" font-size="14.00">mesh</text>
</g>
<!-- attributes3&#45;&gt;mesh2 -->
<g id="edge10" class="edge">
<title>attributes3&#45;&gt;mesh2</title>
<path fill="none" stroke="black" d="M230.38,-87.57C230.38,-95.12 230.38,-105.22 230.38,-114.24"/>
<polygon fill="black" stroke="black" points="226.88,-114.47 230.38,-124.47 233.88,-114.47 226.88,-114.47"/>
</g>
<!-- transform3 -->
<g id="node13" class="node">
<title>transform3</title>
<path fill="none" stroke="black" d="M202.71,-186.5C202.71,-186.5 258.05,-186.5 258.05,-186.5 262.21,-186.5 266.38,-190.67 266.38,-194.83 266.38,-194.83 266.38,-203.17 266.38,-203.17 266.38,-207.33 262.21,-211.5 258.05,-211.5 258.05,-211.5 202.71,-211.5 202.71,-211.5 198.55,-211.5 194.38,-207.33 194.38,-203.17 194.38,-203.17 194.38,-194.83 194.38,-194.83 194.38,-190.67 198.55,-186.5 202.71,-186.5"/>
<text text-anchor="middle" x="230.09" y="-194.8" font-family="Times,serif" font-size="14.00">transform</text>
</g>
<!-- mesh2&#45;&gt;transform3 -->
<g id="edge11" class="edge">
<title>mesh2&#45;&gt;transform3</title>
<path fill="none" stroke="black" d="M230.38,-149.57C230.38,-157.12 230.38,-167.22 230.38,-176.24"/>
<polygon fill="black" stroke="black" points="226.88,-176.47 230.38,-186.47 233.88,-176.47 226.88,-176.47"/>
</g>
<!-- transform3&#45;&gt;root -->
<g id="edge12" class="edge">
<title>transform3&#45;&gt;root:e</title>
<path fill="none" stroke="black" d="M226.29,-211.76C220.24,-227.06 207.42,-252.64 187.42,-259.35"/>
<polygon fill="black" stroke="black" points="186.68,-255.92 177.38,-261 187.81,-262.83 186.68,-255.92"/>
</g>
</g>
</svg>
