<?xml version="1.0" encoding="UTF-8" standalone="no"?>
<!DOCTYPE svg PUBLIC "-//W3C//DTD SVG 1.1//EN"
 "http://www.w3.org/Graphics/SVG/1.1/DTD/svg11.dtd">
<!-- Generated by graphviz version 2.43.0 (0)
 -->
<!-- Title: multilight Pages: 1 -->
<svg width="399pt" height="392pt"
 viewBox="0.00 0.00 399.00 392.00" xmlns="http://www.w3.org/2000/svg" xmlns:xlink="http://www.w3.org/1999/xlink">
<g id="graph0" class="graph" transform="scale(1 1) rotate(0) translate(4 388)">
<title>multilight</title>
<polygon fill="transparent" stroke="transparent" points="-4,4 -4,-388 395,-388 395,4 -4,4"/>
<g id="clust1" class="cluster">
<title>cluster_1</title>
<path fill="none" stroke="grey" d="M127,-204C127,-204 371,-204 371,-204 377,-204 383,-210 383,-216 383,-216 383,-318 383,-318 383,-324 377,-330 371,-330 371,-330 127,-330 127,-330 121,-330 115,-324 115,-318 115,-318 115,-216 115,-216 115,-210 121,-204 127,-204"/>
<text text-anchor="middle" x="249" y="-210.8" font-family="Times,serif" font-size="14.00" fill="grey">light sources &#160;&#160;&#160;&#160;&#160;&#160;&#160;&#160;&#160;&#160;&#160;&#160;&#160;&#160;&#160;&#160;&#160;&#160;&#160;&#160;&#160;&#160;&#160;&#160;&#160;</text>
</g>
<g id="clust4" class="cluster">
<title>cluster_2</title>
<path fill="none" stroke="grey" d="M20,-8C20,-8 207,-8 207,-8 213,-8 219,-14 219,-20 219,-20 219,-184 219,-184 219,-190 213,-196 207,-196 207,-196 20,-196 20,-196 14,-196 8,-190 8,-184 8,-184 8,-20 8,-20 8,-14 14,-8 20,-8"/>
<text text-anchor="middle" x="113.5" y="-14.8" font-family="Times,serif" font-size="14.00" fill="grey">output chain</text>
</g>
<!-- geometry1 -->
<g id="node1" class="node">
<title>geometry1</title>
<path fill="#ffc374" stroke="black" d="M221.33,-234.5C221.33,-234.5 276.67,-234.5 276.67,-234.5 280.83,-234.5 285,-238.67 285,-242.83 285,-242.83 285,-251.17 285,-251.17 285,-255.33 280.83,-259.5 276.67,-259.5 276.67,-259.5 221.33,-259.5 221.33,-259.5 217.17,-259.5 213,-255.33 213,-251.17 213,-251.17 213,-242.83 213,-242.83 213,-238.67 217.17,-234.5 221.33,-234.5"/>
<text text-anchor="middle" x="248.8" y="-242.8" font-family="Times,serif" font-size="14.00">back light</text>
</g>
<!-- transform1 -->
<g id="node2" class="node">
<title>transform1</title>
<path fill="none" stroke="black" d="M221.33,-296.5C221.33,-296.5 276.67,-296.5 276.67,-296.5 280.83,-296.5 285,-300.67 285,-304.83 285,-304.83 285,-313.17 285,-313.17 285,-317.33 280.83,-321.5 276.67,-321.5 276.67,-321.5 221.33,-321.5 221.33,-321.5 217.17,-321.5 213,-317.33 213,-313.17 213,-313.17 213,-304.83 213,-304.83 213,-300.67 217.17,-296.5 221.33,-296.5"/>
<text text-anchor="middle" x="248.71" y="-304.8" font-family="Times,serif" font-size="14.00">transform</text>
</g>
<!-- geometry1&#45;&gt;transform1 -->
<g id="edge1" class="edge">
<title>geometry1&#45;&gt;transform1</title>
<path fill="none" stroke="black" d="M249,-259.57C249,-267.12 249,-277.22 249,-286.24"/>
<polygon fill="black" stroke="black" points="245.5,-286.47 249,-296.47 252.5,-286.47 245.5,-286.47"/>
</g>
<!-- set -->
<g id="node13" class="node">
<title>set</title>
<polygon fill="none" stroke="black" points="301,-63.5 229,-63.5 229,-38.5 301,-38.5 301,-63.5"/>
<text text-anchor="middle" x="265" y="-46.8" font-family="Times,serif" font-size="14.00">set</text>
</g>
<!-- geometry1&#45;&gt;set -->
<g id="edge11" class="edge">
<title>geometry1&#45;&gt;set</title>
<path fill="none" stroke="black" d="M249.97,-234.26C252.59,-202.51 259.84,-114.57 263.22,-73.57"/>
<polygon fill="black" stroke="black" points="266.71,-73.81 264.05,-63.55 259.74,-73.23 266.71,-73.81"/>
</g>
<!-- root -->
<g id="node12" class="node">
<title>root</title>
<path fill="#99d2f2" stroke="black" d="M176.33,-358.5C176.33,-358.5 231.67,-358.5 231.67,-358.5 235.83,-358.5 240,-362.67 240,-366.83 240,-366.83 240,-375.17 240,-375.17 240,-379.33 235.83,-383.5 231.67,-383.5 231.67,-383.5 176.33,-383.5 176.33,-383.5 172.17,-383.5 168,-379.33 168,-375.17 168,-375.17 168,-366.83 168,-366.83 168,-362.67 172.17,-358.5 176.33,-358.5"/>
<text text-anchor="middle" x="203.53" y="-366.8" font-family="Times,serif" font-size="14.00">.root</text>
</g>
<!-- transform1&#45;&gt;root -->
<g id="edge8" class="edge">
<title>transform1&#45;&gt;root</title>
<path fill="none" stroke="black" d="M240.32,-321.57C234.22,-329.7 225.91,-340.79 218.77,-350.3"/>
<polygon fill="black" stroke="black" points="215.85,-348.37 212.65,-358.47 221.45,-352.57 215.85,-348.37"/>
</g>
<!-- geometry2 -->
<g id="node3" class="node">
<title>geometry2</title>
<path fill="#ffc374" stroke="black" d="M311.33,-234.5C311.33,-234.5 366.67,-234.5 366.67,-234.5 370.83,-234.5 375,-238.67 375,-242.83 375,-242.83 375,-251.17 375,-251.17 375,-255.33 370.83,-259.5 366.67,-259.5 366.67,-259.5 311.33,-259.5 311.33,-259.5 307.17,-259.5 303,-255.33 303,-251.17 303,-251.17 303,-242.83 303,-242.83 303,-238.67 307.17,-234.5 311.33,-234.5"/>
<text text-anchor="middle" x="338.87" y="-242.8" font-family="Times,serif" font-size="14.00">fill light</text>
</g>
<!-- transform2 -->
<g id="node4" class="node">
<title>transform2</title>
<path fill="none" stroke="black" d="M311.33,-296.5C311.33,-296.5 366.67,-296.5 366.67,-296.5 370.83,-296.5 375,-300.67 375,-304.83 375,-304.83 375,-313.17 375,-313.17 375,-317.33 370.83,-321.5 366.67,-321.5 366.67,-321.5 311.33,-321.5 311.33,-321.5 307.17,-321.5 303,-317.33 303,-313.17 303,-313.17 303,-304.83 303,-304.83 303,-300.67 307.17,-296.5 311.33,-296.5"/>
<text text-anchor="middle" x="338.71" y="-304.8" font-family="Times,serif" font-size="14.00">transform</text>
</g>
<!-- geometry2&#45;&gt;transform2 -->
<g id="edge2" class="edge">
<title>geometry2&#45;&gt;transform2</title>
<path fill="none" stroke="black" d="M339,-259.57C339,-267.12 339,-277.22 339,-286.24"/>
<polygon fill="black" stroke="black" points="335.5,-286.47 339,-296.47 342.5,-286.47 335.5,-286.47"/>
</g>
<!-- geometry2&#45;&gt;set -->
<g id="edge12" class="edge">
<title>geometry2&#45;&gt;set</title>
<path fill="none" stroke="black" d="M334.52,-234.26C322.36,-202.37 288.58,-113.82 273.03,-73.05"/>
<polygon fill="black" stroke="black" points="276.24,-71.65 269.41,-63.55 269.7,-74.15 276.24,-71.65"/>
</g>
<!-- transform2&#45;&gt;root -->
<g id="edge9" class="edge">
<title>transform2&#45;&gt;root</title>
<path fill="none" stroke="black" d="M312.97,-321.57C292.05,-330.87 262.46,-344.02 239.39,-354.27"/>
<polygon fill="black" stroke="black" points="237.67,-351.21 229.95,-358.47 240.51,-357.6 237.67,-351.21"/>
</g>
<!-- geometry3 -->
<g id="node5" class="node">
<title>geometry3</title>
<path fill="#ffc374" stroke="black" d="M131.33,-234.5C131.33,-234.5 186.67,-234.5 186.67,-234.5 190.83,-234.5 195,-238.67 195,-242.83 195,-242.83 195,-251.17 195,-251.17 195,-255.33 190.83,-259.5 186.67,-259.5 186.67,-259.5 131.33,-259.5 131.33,-259.5 127.17,-259.5 123,-255.33 123,-251.17 123,-251.17 123,-242.83 123,-242.83 123,-238.67 127.17,-234.5 131.33,-234.5"/>
<text text-anchor="middle" x="158.81" y="-242.8" font-family="Times,serif" font-size="14.00">rim light</text>
</g>
<!-- transform3 -->
<g id="node6" class="node">
<title>transform3</title>
<path fill="none" stroke="black" d="M131.33,-296.5C131.33,-296.5 186.67,-296.5 186.67,-296.5 190.83,-296.5 195,-300.67 195,-304.83 195,-304.83 195,-313.17 195,-313.17 195,-317.33 190.83,-321.5 186.67,-321.5 186.67,-321.5 131.33,-321.5 131.33,-321.5 127.17,-321.5 123,-317.33 123,-313.17 123,-313.17 123,-304.83 123,-304.83 123,-300.67 127.17,-296.5 131.33,-296.5"/>
<text text-anchor="middle" x="158.71" y="-304.8" font-family="Times,serif" font-size="14.00">transform</text>
</g>
<!-- geometry3&#45;&gt;transform3 -->
<g id="edge3" class="edge">
<title>geometry3&#45;&gt;transform3</title>
<path fill="none" stroke="black" d="M159,-259.57C159,-267.12 159,-277.22 159,-286.24"/>
<polygon fill="black" stroke="black" points="155.5,-286.47 159,-296.47 162.5,-286.47 155.5,-286.47"/>
</g>
<!-- transform3&#45;&gt;root -->
<g id="edge10" class="edge">
<title>transform3&#45;&gt;root</title>
<path fill="none" stroke="black" d="M167.68,-321.57C173.78,-329.7 182.09,-340.79 189.23,-350.3"/>
<polygon fill="black" stroke="black" points="186.55,-352.57 195.35,-358.47 192.15,-348.37 186.55,-352.57"/>
</g>
<!-- driver -->
<g id="node7" class="node">
<title>driver</title>
<path fill="#cc9ccc" stroke="black" d="M130.98,-38.5C130.98,-38.5 203.02,-38.5 203.02,-38.5 207.19,-38.5 211.35,-42.67 211.35,-46.83 211.35,-46.83 211.35,-55.17 211.35,-55.17 211.35,-59.33 207.19,-63.5 203.02,-63.5 203.02,-63.5 130.98,-63.5 130.98,-63.5 126.81,-63.5 122.65,-59.33 122.65,-55.17 122.65,-55.17 122.65,-46.83 122.65,-46.83 122.65,-42.67 126.81,-38.5 130.98,-38.5"/>
<text text-anchor="middle" x="167" y="-46.8" font-family="Times,serif" font-size="14.00">output driver</text>
</g>
<!-- layer -->
<g id="node8" class="node">
<title>layer</title>
<path fill="lightgrey" stroke="black" d="M133.7,-100.5C133.7,-100.5 200.3,-100.5 200.3,-100.5 204.46,-100.5 208.63,-104.67 208.63,-108.83 208.63,-108.83 208.63,-117.17 208.63,-117.17 208.63,-121.33 204.46,-125.5 200.3,-125.5 200.3,-125.5 133.7,-125.5 133.7,-125.5 129.54,-125.5 125.37,-121.33 125.37,-117.17 125.37,-117.17 125.37,-108.83 125.37,-108.83 125.37,-104.67 129.54,-100.5 133.7,-100.5"/>
<text text-anchor="middle" x="167" y="-108.8" font-family="Times,serif" font-size="14.00">output layer</text>
</g>
<!-- driver&#45;&gt;layer -->
<g id="edge4" class="edge">
<title>driver&#45;&gt;layer</title>
<path fill="none" stroke="black" d="M167,-63.57C167,-71.12 167,-81.22 167,-90.24"/>
<polygon fill="black" stroke="black" points="163.5,-90.47 167,-100.47 170.5,-90.47 163.5,-90.47"/>
</g>
<!-- screen -->
<g id="node9" class="node">
<title>screen</title>
<path fill="#ffc2c2" stroke="black" d="M41.33,-162.5C41.33,-162.5 96.67,-162.5 96.67,-162.5 100.83,-162.5 105,-166.67 105,-170.83 105,-170.83 105,-179.17 105,-179.17 105,-183.33 100.83,-187.5 96.67,-187.5 96.67,-187.5 41.33,-187.5 41.33,-187.5 37.17,-187.5 33,-183.33 33,-179.17 33,-179.17 33,-170.83 33,-170.83 33,-166.67 37.17,-162.5 41.33,-162.5"/>
<text text-anchor="middle" x="68.88" y="-170.8" font-family="Times,serif" font-size="14.00">screen</text>
</g>
<!-- layer&#45;&gt;screen -->
<g id="edge5" class="edge">
<title>layer&#45;&gt;screen</title>
<path fill="none" stroke="black" d="M148.1,-125.57C133.46,-134.53 112.97,-147.08 96.5,-157.16"/>
<polygon fill="black" stroke="black" points="94.54,-154.26 87.84,-162.47 98.19,-160.23 94.54,-154.26"/>
</g>
<!-- camera -->
<g id="node14" class="node">
<title>camera</title>
<path fill="#5abaa7" stroke="black" d="M41.33,-234.5C41.33,-234.5 96.67,-234.5 96.67,-234.5 100.83,-234.5 105,-238.67 105,-242.83 105,-242.83 105,-251.17 105,-251.17 105,-255.33 100.83,-259.5 96.67,-259.5 96.67,-259.5 41.33,-259.5 41.33,-259.5 37.17,-259.5 33,-255.33 33,-251.17 33,-251.17 33,-242.83 33,-242.83 33,-238.67 37.17,-234.5 41.33,-234.5"/>
<text text-anchor="middle" x="68.7" y="-242.8" font-family="Times,serif" font-size="14.00">camera</text>
</g>
<!-- screen&#45;&gt;camera -->
<g id="edge14" class="edge">
<title>screen&#45;&gt;camera</title>
<path fill="none" stroke="black" d="M69,-187.56C69,-197.43 69,-211.9 69,-223.98"/>
<polygon fill="black" stroke="black" points="65.5,-224.19 69,-234.19 72.5,-224.19 65.5,-224.19"/>
</g>
<!-- driver2 -->
<g id="node10" class="node">
<title>driver2</title>
<path fill="#cc9ccc" stroke="black" d="M23.98,-38.5C23.98,-38.5 96.02,-38.5 96.02,-38.5 100.19,-38.5 104.35,-42.67 104.35,-46.83 104.35,-46.83 104.35,-55.17 104.35,-55.17 104.35,-59.33 100.19,-63.5 96.02,-63.5 96.02,-63.5 23.98,-63.5 23.98,-63.5 19.81,-63.5 15.65,-59.33 15.65,-55.17 15.65,-55.17 15.65,-46.83 15.65,-46.83 15.65,-42.67 19.81,-38.5 23.98,-38.5"/>
<text text-anchor="middle" x="60" y="-46.8" font-family="Times,serif" font-size="14.00">output driver</text>
</g>
<!-- layer2 -->
<g id="node11" class="node">
<title>layer2</title>
<path fill="lightgrey" stroke="black" d="M29.7,-100.5C29.7,-100.5 96.3,-100.5 96.3,-100.5 100.46,-100.5 104.63,-104.67 104.63,-108.83 104.63,-108.83 104.63,-117.17 104.63,-117.17 104.63,-121.33 100.46,-125.5 96.3,-125.5 96.3,-125.5 29.7,-125.5 29.7,-125.5 25.54,-125.5 21.37,-121.33 21.37,-117.17 21.37,-117.17 21.37,-108.83 21.37,-108.83 21.37,-104.67 25.54,-100.5 29.7,-100.5"/>
<text text-anchor="middle" x="63" y="-108.8" font-family="Times,serif" font-size="14.00">output layer</text>
</g>
<!-- driver2&#45;&gt;layer2 -->
<g id="edge6" class="edge">
<title>driver2&#45;&gt;layer2</title>
<path fill="none" stroke="black" d="M60.58,-63.57C60.96,-71.12 61.46,-81.22 61.91,-90.24"/>
<polygon fill="black" stroke="black" points="58.43,-90.65 62.42,-100.47 65.42,-90.3 58.43,-90.65"/>
</g>
<!-- layer2&#45;&gt;screen -->
<g id="edge7" class="edge">
<title>layer2&#45;&gt;screen</title>
<path fill="none" stroke="black" d="M64.16,-125.57C64.91,-133.12 65.92,-143.22 66.82,-152.24"/>
<polygon fill="black" stroke="black" points="63.37,-152.86 67.85,-162.47 70.33,-152.17 63.37,-152.86"/>
</g>
<!-- set&#45;&gt;layer -->
<g id="edge13" class="edge">
<title>set&#45;&gt;layer</title>
<path fill="none" stroke="black" d="M246.1,-63.57C231.46,-72.53 210.97,-85.08 194.5,-95.16"/>
<polygon fill="black" stroke="black" points="192.54,-92.26 185.84,-100.47 196.19,-98.23 192.54,-92.26"/>
</g>
<!-- transform -->
<g id="node15" class="node">
<title>transform</title>
<path fill="none" stroke="black" d="M41.33,-296.5C41.33,-296.5 96.67,-296.5 96.67,-296.5 100.83,-296.5 105,-300.67 105,-304.83 105,-304.83 105,-313.17 105,-313.17 105,-317.33 100.83,-321.5 96.67,-321.5 96.67,-321.5 41.33,-321.5 41.33,-321.5 37.17,-321.5 33,-317.33 33,-313.17 33,-313.17 33,-304.83 33,-304.83 33,-300.67 37.17,-296.5 41.33,-296.5"/>
<text text-anchor="middle" x="68.71" y="-304.8" font-family="Times,serif" font-size="14.00">transform</text>
</g>
<!-- camera&#45;&gt;transform -->
<g id="edge15" class="edge">
<title>camera&#45;&gt;transform</title>
<path fill="none" stroke="black" d="M69,-259.57C69,-267.12 69,-277.22 69,-286.24"/>
<polygon fill="black" stroke="black" points="65.5,-286.47 69,-296.47 72.5,-286.47 65.5,-286.47"/>
</g>
<!-- transform&#45;&gt;root -->
<g id="edge16" class="edge">
<title>transform&#45;&gt;root</title>
<path fill="none" stroke="black" d="M92.91,-321.58C98.81,-324.38 105.11,-327.33 111,-330 129.2,-338.24 149.58,-347.05 166.61,-354.3"/>
<polygon fill="black" stroke="black" points="165.63,-357.69 176.21,-358.37 168.37,-351.25 165.63,-357.69"/>
</g>
</g>
</svg>
