<?xml version="1.0" encoding="UTF-8" standalone="no"?>
<svg
   xmlns:dc="http://purl.org/dc/elements/1.1/"
   xmlns:cc="http://creativecommons.org/ns#"
   xmlns:rdf="http://www.w3.org/1999/02/22-rdf-syntax-ns#"
   xmlns:svg="http://www.w3.org/2000/svg"
   xmlns="http://www.w3.org/2000/svg"
   viewBox="0 0 150 90"
   height="90"
   width="150"
   xml:space="preserve"
   id="svg96"
   version="1.1"><metadata
     id="metadata102"><rdf:RDF><cc:Work
         rdf:about=""><dc:format>image/svg+xml</dc:format><dc:type
           rdf:resource="http://purl.org/dc/dcmitype/StillImage" /><dc:title></dc:title></cc:Work></rdf:RDF></metadata><defs
     id="defs100" /><g
     transform="matrix(1.3333333,0,0,-1.3333333,0,90)"
     id="g104"><path
       id="path106"
       style="fill:#000000;fill-opacity:1;fill-rule:nonzero;stroke:none"
       d="m 1.0888,9.4234 h 7.8339 v 29.9238 c 0,6.5587 3.5526,12.3886 11.7965,12.3886 6.9685,0 11.7053,-4.0992 11.7053,-12.1608 V 9.4234 h 7.834 v 31.4724 c 0,11.6598 -7.333,17.9452 -17.1709,17.9452 -7.7884,0 -12.2064,-4.0536 -13.9827,-7.1052 H 8.8772 v 6.3309 H 1.0888 Z" /><path
       id="path108"
       style="fill:#000000;fill-opacity:1;fill-rule:nonzero;stroke:none"
       d="m 51.4537,44.3573 c 0,-8.6538 6.1216,-11.3865 15.0487,-13.2084 6.6952,-1.3208 10.5241,-1.4119 10.5241,-6.8319 0,-4.0536 -2.1135,-7.0596 -9.4465,-7.0596 -6.3764,0 -27.3215,0 -27.3215,0 v -7.834 c 0,0 16.2083,0 26.7294,0 11.2499,0 17.7359,5.3745 17.7359,14.8936 0,9.337 -6.0606,11.7509 -15.0332,13.345 -5.4655,1.002 -10.5852,1.3209 -10.5852,6.6953 0,4.7368 4.0992,6.7603 9.7925,6.7603 7.4695,0 27.0968,0 27.0968,0 v 7.834 c 0,0 -24.5417,-0.1106 -26.8236,-0.1106 -9.2003,0 -17.7174,-4.3725 -17.7174,-14.4837 z" /><path
       id="path110"
       style="fill:#000000;fill-opacity:1;fill-rule:nonzero;stroke:none"
       d="m 95.9947,9.4234 h 7.8339 v 49.5281 h -7.8339 z" /><path
       id="path112"
       style="fill:#ffffff;fill-opacity:1;fill-rule:evenodd;stroke:#000000;stroke-width:4.5;stroke-linecap:butt;stroke-linejoin:miter;stroke-miterlimit:10;stroke-dasharray:none;stroke-opacity:1"
       d="m 36.3415,21.2154 c 4.3463,0 7.875,-3.5287 7.875,-7.875 0,-4.3463 -3.5287,-7.875 -7.875,-7.875 -4.3463,0 -7.875,3.5287 -7.875,7.875 0,4.3463 3.5287,7.875 7.875,7.875 z" /><path
       id="path114"
       style="fill:#ffffff;fill-opacity:1;fill-rule:evenodd;stroke:#000000;stroke-width:4.5;stroke-linecap:butt;stroke-linejoin:miter;stroke-miterlimit:10;stroke-dasharray:none;stroke-opacity:1"
       d="m 99.9117,62.9096 c 4.3463,0 7.8753,-3.5287 7.8753,-7.875 0,-4.3463 -3.529,-7.875 -7.8753,-7.875 -4.3463,0 -7.875,3.5287 -7.875,7.875 0,4.3463 3.5287,7.875 7.875,7.875 z" /></g></svg>
