<?xml version="1.0" encoding="UTF-8" standalone="no"?>
<!DOCTYPE svg PUBLIC "-//W3C//DTD SVG 1.1//EN"
 "http://www.w3.org/Graphics/SVG/1.1/DTD/svg11.dtd">
<!-- Generated by graphviz version 2.43.0 (0)
 -->
<!-- Title: osl_network Pages: 1 -->
<svg width="571pt" height="259pt"
 viewBox="0.00 0.00 570.51 259.00" xmlns="http://www.w3.org/2000/svg" xmlns:xlink="http://www.w3.org/1999/xlink">
<g id="graph0" class="graph" transform="scale(1 1) rotate(0) translate(4 255)">
<title>osl_network</title>
<polygon fill="transparent" stroke="transparent" points="-4,4 -4,-255 566.51,-255 566.51,4 -4,4"/>
<g id="clust1" class="cluster">
<title>cluster_1</title>
<path fill="none" stroke="grey" d="M20,-8C20,-8 426.05,-8 426.05,-8 432.05,-8 438.05,-14 438.05,-20 438.05,-20 438.05,-231 438.05,-231 438.05,-237 432.05,-243 426.05,-243 426.05,-243 20,-243 20,-243 14,-243 8,-237 8,-231 8,-231 8,-20 8,-20 8,-14 14,-8 20,-8"/>
<text text-anchor="middle" x="223.03" y="-227.8" font-family="Times,serif" font-size="14.00" fill="grey">OSL network</text>
</g>
<!-- ggx -->
<g id="node1" class="node">
<title>ggx</title>
<path fill="none" stroke="black" d="M366.96,-59C366.96,-59 418.05,-59 418.05,-59 424.05,-59 430.05,-65 430.05,-71 430.05,-71 430.05,-113 430.05,-113 430.05,-119 424.05,-125 418.05,-125 418.05,-125 366.96,-125 366.96,-125 360.96,-125 354.96,-119 354.96,-113 354.96,-113 354.96,-71 354.96,-71 354.96,-65 360.96,-59 366.96,-59"/>
<text text-anchor="middle" x="392.51" y="-109.8" font-family="Times,serif" font-size="14.00">ggx_metal</text>
<polyline fill="none" stroke="black" points="354.96,-103 430.05,-103 "/>
<text text-anchor="middle" x="392.51" y="-87.8" font-family="Times,serif" font-size="14.00">roughness</text>
<polyline fill="none" stroke="black" points="354.96,-81 430.05,-81 "/>
<text text-anchor="middle" x="392.51" y="-65.8" font-family="Times,serif" font-size="14.00">dirtlayer</text>
</g>
<!-- attributes -->
<g id="node5" class="node">
<title>attributes</title>
<path fill="#ccccfc" stroke="black" d="M478.05,-103C478.05,-103 550.51,-103 550.51,-103 556.51,-103 562.51,-109 562.51,-115 562.51,-115 562.51,-135 562.51,-135 562.51,-141 556.51,-147 550.51,-147 550.51,-147 478.05,-147 478.05,-147 472.05,-147 466.05,-141 466.05,-135 466.05,-135 466.05,-115 466.05,-115 466.05,-109 472.05,-103 478.05,-103"/>
<text text-anchor="middle" x="514.28" y="-131.8" font-family="Times,serif" font-size="14.00">attributes</text>
<polyline fill="none" stroke="black" points="466.05,-125 562.51,-125 "/>
<text text-anchor="middle" x="514.28" y="-109.8" font-family="Times,serif" font-size="14.00">.surfaceshader</text>
</g>
<!-- ggx&#45;&gt;attributes -->
<g id="edge4" class="edge">
<title>ggx:output&#45;&gt;attributes:surface</title>
<path fill="none" stroke="black" d="M431.51,-114C442.78,-114 447.85,-114 455.82,-114"/>
<polygon fill="black" stroke="black" points="456.05,-117.5 466.05,-114 456.05,-110.5 456.05,-117.5"/>
</g>
<!-- getattribute -->
<g id="node2" class="node">
<title>getattribute</title>
<path fill="none" stroke="black" d="M28,-39C28,-39 125.63,-39 125.63,-39 131.63,-39 137.63,-45 137.63,-51 137.63,-51 137.63,-93 137.63,-93 137.63,-99 131.63,-105 125.63,-105 125.63,-105 28,-105 28,-105 22,-105 16,-99 16,-93 16,-93 16,-51 16,-51 16,-45 22,-39 28,-39"/>
<text text-anchor="middle" x="76.81" y="-89.8" font-family="Times,serif" font-size="14.00">read_attribute</text>
<polyline fill="none" stroke="black" points="16,-83 137.63,-83 "/>
<text text-anchor="middle" x="76.81" y="-67.8" font-family="Times,serif" font-size="14.00">attributename=&quot;st&quot;</text>
<polyline fill="none" stroke="black" points="16,-61 137.63,-61 "/>
<text text-anchor="middle" x="76.81" y="-45.8" font-family="Times,serif" font-size="14.00">output</text>
</g>
<!-- readtexture -->
<g id="node3" class="node">
<title>readtexture</title>
<path fill="none" stroke="black" d="M185.63,-17C185.63,-17 306.96,-17 306.96,-17 312.96,-17 318.96,-23 318.96,-29 318.96,-29 318.96,-93 318.96,-93 318.96,-99 312.96,-105 306.96,-105 306.96,-105 185.63,-105 185.63,-105 179.63,-105 173.63,-99 173.63,-93 173.63,-93 173.63,-29 173.63,-29 173.63,-23 179.63,-17 185.63,-17"/>
<text text-anchor="middle" x="246.29" y="-89.8" font-family="Times,serif" font-size="14.00">read_texture</text>
<polyline fill="none" stroke="black" points="173.63,-83 318.96,-83 "/>
<text text-anchor="middle" x="246.29" y="-67.8" font-family="Times,serif" font-size="14.00">texturename=&quot;dirt.exr&quot;</text>
<polyline fill="none" stroke="black" points="173.63,-61 318.96,-61 "/>
<text text-anchor="middle" x="246.29" y="-45.8" font-family="Times,serif" font-size="14.00">uv</text>
<polyline fill="none" stroke="black" points="173.63,-39 318.96,-39 "/>
<text text-anchor="middle" x="246.29" y="-23.8" font-family="Times,serif" font-size="14.00">output</text>
</g>
<!-- getattribute&#45;&gt;readtexture -->
<g id="edge1" class="edge">
<title>getattribute:output&#45;&gt;readtexture:uvset</title>
<path fill="none" stroke="black" d="M137.63,-50C149.63,-50 154.88,-50 163.5,-50"/>
<polygon fill="black" stroke="black" points="163.63,-53.5 173.63,-50 163.63,-46.5 163.63,-53.5"/>
</g>
<!-- readtexture&#45;&gt;ggx -->
<g id="edge2" class="edge">
<title>readtexture:output&#45;&gt;ggx:dirtlayer</title>
<path fill="none" stroke="black" d="M318.96,-28C339.32,-28 333.78,-56.8 345.24,-66.7"/>
<polygon fill="black" stroke="black" points="344.36,-70.1 354.96,-70 346.61,-63.47 344.36,-70.1"/>
</g>
<!-- noise -->
<g id="node4" class="node">
<title>noise</title>
<path fill="none" stroke="black" d="M209.61,-124C209.61,-124 282.98,-124 282.98,-124 288.98,-124 294.98,-130 294.98,-136 294.98,-136 294.98,-200 294.98,-200 294.98,-206 288.98,-212 282.98,-212 282.98,-212 209.61,-212 209.61,-212 203.61,-212 197.61,-206 197.61,-200 197.61,-200 197.61,-136 197.61,-136 197.61,-130 203.61,-124 209.61,-124"/>
<text text-anchor="middle" x="246.29" y="-196.8" font-family="Times,serif" font-size="14.00">noise</text>
<polyline fill="none" stroke="black" points="197.61,-190 294.98,-190 "/>
<text text-anchor="middle" x="246.29" y="-174.8" font-family="Times,serif" font-size="14.00">frequency=1.0</text>
<polyline fill="none" stroke="black" points="197.61,-168 294.98,-168 "/>
<text text-anchor="middle" x="246.29" y="-152.8" font-family="Times,serif" font-size="14.00">lacunarity=2.0</text>
<polyline fill="none" stroke="black" points="197.61,-146 294.98,-146 "/>
<text text-anchor="middle" x="246.29" y="-130.8" font-family="Times,serif" font-size="14.00">output</text>
</g>
<!-- noise&#45;&gt;ggx -->
<g id="edge3" class="edge">
<title>noise:output&#45;&gt;ggx:roughness</title>
<path fill="none" stroke="black" d="M296.29,-135C324.83,-135 323.51,-101.49 345.05,-93.63"/>
<polygon fill="black" stroke="black" points="345.66,-97.08 354.96,-92 344.52,-90.17 345.66,-97.08"/>
</g>
</g>
</svg>
