<?xml version="1.0" encoding="UTF-8" standalone="no"?>
<!DOCTYPE svg PUBLIC "-//W3C//DTD SVG 1.1//EN"
 "http://www.w3.org/Graphics/SVG/1.1/DTD/svg11.dtd">
<!-- Generated by graphviz version 2.43.0 (0)
 -->
<!-- Title: output2 Pages: 1 -->
<svg width="355pt" height="344pt"
 viewBox="0.00 0.00 355.00 344.00" xmlns="http://www.w3.org/2000/svg" xmlns:xlink="http://www.w3.org/1999/xlink">
<g id="graph0" class="graph" transform="scale(1 1) rotate(0) translate(4 340)">
<title>output2</title>
<polygon fill="white" stroke="transparent" points="-4,4 -4,-340 351,-340 351,4 -4,4"/>
<!-- driver -->
<g id="node1" class="node">
<title>driver</title>
<path fill="#cc9ccc" stroke="black" d="M78.33,-0.5C78.33,-0.5 133.67,-0.5 133.67,-0.5 137.83,-0.5 142,-4.67 142,-8.83 142,-8.83 142,-17.17 142,-17.17 142,-21.33 137.83,-25.5 133.67,-25.5 133.67,-25.5 78.33,-25.5 78.33,-25.5 74.17,-25.5 70,-21.33 70,-17.17 70,-17.17 70,-8.83 70,-8.83 70,-4.67 74.17,-0.5 78.33,-0.5"/>
<text text-anchor="middle" x="105.52" y="-8.8" font-family="Times,serif" font-size="14.00">left.exr</text>
</g>
<!-- layer -->
<g id="node2" class="node">
<title>layer</title>
<path fill="lightgrey" stroke="black" d="M98.33,-62.5C98.33,-62.5 153.67,-62.5 153.67,-62.5 157.83,-62.5 162,-66.67 162,-70.83 162,-70.83 162,-79.17 162,-79.17 162,-83.33 157.83,-87.5 153.67,-87.5 153.67,-87.5 98.33,-87.5 98.33,-87.5 94.17,-87.5 90,-83.33 90,-79.17 90,-79.17 90,-70.83 90,-70.83 90,-66.67 94.17,-62.5 98.33,-62.5"/>
<text text-anchor="middle" x="125.61" y="-70.8" font-family="Times,serif" font-size="14.00">Ci</text>
</g>
<!-- driver&#45;&gt;layer -->
<g id="edge1" class="edge">
<title>driver&#45;&gt;layer</title>
<path fill="none" stroke="black" d="M109.86,-25.57C112.43,-33.29 115.89,-43.67 118.94,-52.83"/>
<polygon fill="black" stroke="black" points="115.67,-54.09 122.16,-62.47 122.31,-51.87 115.67,-54.09"/>
</g>
<!-- layer2 -->
<g id="node3" class="node">
<title>layer2</title>
<path fill="lightgrey" stroke="black" d="M8.33,-62.5C8.33,-62.5 63.67,-62.5 63.67,-62.5 67.83,-62.5 72,-66.67 72,-70.83 72,-70.83 72,-79.17 72,-79.17 72,-83.33 67.83,-87.5 63.67,-87.5 63.67,-87.5 8.33,-87.5 8.33,-87.5 4.17,-87.5 0,-83.33 0,-79.17 0,-79.17 0,-70.83 0,-70.83 0,-66.67 4.17,-62.5 8.33,-62.5"/>
<text text-anchor="middle" x="35.87" y="-70.8" font-family="Times,serif" font-size="14.00">Diffuse</text>
</g>
<!-- driver&#45;&gt;layer2 -->
<g id="edge2" class="edge">
<title>driver&#45;&gt;layer2</title>
<path fill="none" stroke="black" d="M92.5,-25.57C82.53,-34.12 68.75,-45.93 57.3,-55.75"/>
<polygon fill="black" stroke="black" points="54.77,-53.3 49.46,-62.47 59.33,-58.62 54.77,-53.3"/>
</g>
<!-- leftscreen -->
<g id="node7" class="node">
<title>leftscreen</title>
<path fill="#ffc2c2" stroke="black" d="M94.38,-124.5C94.38,-124.5 151.62,-124.5 151.62,-124.5 155.79,-124.5 159.95,-128.67 159.95,-132.83 159.95,-132.83 159.95,-141.17 159.95,-141.17 159.95,-145.33 155.79,-149.5 151.62,-149.5 151.62,-149.5 94.38,-149.5 94.38,-149.5 90.21,-149.5 86.05,-145.33 86.05,-141.17 86.05,-141.17 86.05,-132.83 86.05,-132.83 86.05,-128.67 90.21,-124.5 94.38,-124.5"/>
<text text-anchor="middle" x="123" y="-132.8" font-family="Times,serif" font-size="14.00">left screen</text>
</g>
<!-- layer&#45;&gt;leftscreen -->
<g id="edge5" class="edge">
<title>layer&#45;&gt;leftscreen:s</title>
<path fill="none" stroke="black" d="M124.85,-87.82C124.23,-94.95 123.52,-104.46 123.19,-113.9"/>
<polygon fill="black" stroke="black" points="119.69,-113.94 123,-124 126.69,-114.07 119.69,-113.94"/>
</g>
<!-- layer2&#45;&gt;leftscreen -->
<g id="edge6" class="edge">
<title>layer2&#45;&gt;leftscreen:w</title>
<path fill="none" stroke="black" d="M39.52,-87.76C44.77,-102.99 56.13,-128.41 75.08,-135.26"/>
<polygon fill="black" stroke="black" points="74.55,-138.72 85,-137 75.76,-131.82 74.55,-138.72"/>
</g>
<!-- driver2 -->
<g id="node4" class="node">
<title>driver2</title>
<path fill="#cc9ccc" stroke="black" d="M213.33,-0.5C213.33,-0.5 268.67,-0.5 268.67,-0.5 272.83,-0.5 277,-4.67 277,-8.83 277,-8.83 277,-17.17 277,-17.17 277,-21.33 272.83,-25.5 268.67,-25.5 268.67,-25.5 213.33,-25.5 213.33,-25.5 209.17,-25.5 205,-21.33 205,-17.17 205,-17.17 205,-8.83 205,-8.83 205,-4.67 209.17,-0.5 213.33,-0.5"/>
<text text-anchor="middle" x="240.91" y="-8.8" font-family="Times,serif" font-size="14.00">right.exr</text>
</g>
<!-- layer3 -->
<g id="node5" class="node">
<title>layer3</title>
<path fill="lightgrey" stroke="black" d="M283.33,-62.5C283.33,-62.5 338.67,-62.5 338.67,-62.5 342.83,-62.5 347,-66.67 347,-70.83 347,-70.83 347,-79.17 347,-79.17 347,-83.33 342.83,-87.5 338.67,-87.5 338.67,-87.5 283.33,-87.5 283.33,-87.5 279.17,-87.5 275,-83.33 275,-79.17 275,-79.17 275,-70.83 275,-70.83 275,-66.67 279.17,-62.5 283.33,-62.5"/>
<text text-anchor="middle" x="310.61" y="-70.8" font-family="Times,serif" font-size="14.00">Ci</text>
</g>
<!-- driver2&#45;&gt;layer3 -->
<g id="edge3" class="edge">
<title>driver2&#45;&gt;layer3</title>
<path fill="none" stroke="black" d="M254.5,-25.57C264.47,-34.12 278.25,-45.93 289.7,-55.75"/>
<polygon fill="black" stroke="black" points="287.67,-58.62 297.54,-62.47 292.23,-53.3 287.67,-58.62"/>
</g>
<!-- layer4 -->
<g id="node6" class="node">
<title>layer4</title>
<path fill="lightgrey" stroke="black" d="M193.33,-62.5C193.33,-62.5 248.67,-62.5 248.67,-62.5 252.83,-62.5 257,-66.67 257,-70.83 257,-70.83 257,-79.17 257,-79.17 257,-83.33 252.83,-87.5 248.67,-87.5 248.67,-87.5 193.33,-87.5 193.33,-87.5 189.17,-87.5 185,-83.33 185,-79.17 185,-79.17 185,-70.83 185,-70.83 185,-66.67 189.17,-62.5 193.33,-62.5"/>
<text text-anchor="middle" x="220.87" y="-70.8" font-family="Times,serif" font-size="14.00">Diffuse</text>
</g>
<!-- driver2&#45;&gt;layer4 -->
<g id="edge4" class="edge">
<title>driver2&#45;&gt;layer4</title>
<path fill="none" stroke="black" d="M237.14,-25.57C234.57,-33.29 231.11,-43.67 228.06,-52.83"/>
<polygon fill="black" stroke="black" points="224.69,-51.87 224.84,-62.47 231.33,-54.09 224.69,-51.87"/>
</g>
<!-- rightscreen -->
<g id="node8" class="node">
<title>rightscreen</title>
<path fill="#ffc2c2" stroke="black" d="M190.49,-124.5C190.49,-124.5 255.51,-124.5 255.51,-124.5 259.68,-124.5 263.85,-128.67 263.85,-132.83 263.85,-132.83 263.85,-141.17 263.85,-141.17 263.85,-145.33 259.68,-149.5 255.51,-149.5 255.51,-149.5 190.49,-149.5 190.49,-149.5 186.32,-149.5 182.15,-145.33 182.15,-141.17 182.15,-141.17 182.15,-132.83 182.15,-132.83 182.15,-128.67 186.32,-124.5 190.49,-124.5"/>
<text text-anchor="middle" x="223" y="-132.8" font-family="Times,serif" font-size="14.00">right screen</text>
</g>
<!-- layer3&#45;&gt;rightscreen -->
<g id="edge7" class="edge">
<title>layer3&#45;&gt;rightscreen:e</title>
<path fill="none" stroke="black" d="M307.92,-87.76C303.3,-102.86 293.12,-127.95 275.13,-135.07"/>
<polygon fill="black" stroke="black" points="274.17,-131.69 265,-137 275.48,-138.56 274.17,-131.69"/>
</g>
<!-- layer4&#45;&gt;rightscreen -->
<g id="edge8" class="edge">
<title>layer4&#45;&gt;rightscreen:s</title>
<path fill="none" stroke="black" d="M221.77,-87.83C222.18,-94.96 222.65,-104.47 222.87,-113.9"/>
<polygon fill="black" stroke="black" points="219.37,-114.04 223,-124 226.37,-113.96 219.37,-114.04"/>
</g>
<!-- leftcamera -->
<g id="node10" class="node">
<title>leftcamera</title>
<path fill="#5abaa7" stroke="black" d="M92.05,-186.5C92.05,-186.5 153.95,-186.5 153.95,-186.5 158.11,-186.5 162.28,-190.67 162.28,-194.83 162.28,-194.83 162.28,-203.17 162.28,-203.17 162.28,-207.33 158.11,-211.5 153.95,-211.5 153.95,-211.5 92.05,-211.5 92.05,-211.5 87.89,-211.5 83.72,-207.33 83.72,-203.17 83.72,-203.17 83.72,-194.83 83.72,-194.83 83.72,-190.67 87.89,-186.5 92.05,-186.5"/>
<text text-anchor="middle" x="123" y="-194.8" font-family="Times,serif" font-size="14.00">left camera</text>
</g>
<!-- leftscreen&#45;&gt;leftcamera -->
<g id="edge10" class="edge">
<title>leftscreen&#45;&gt;leftcamera</title>
<path fill="none" stroke="black" d="M123,-149.57C123,-157.12 123,-167.22 123,-176.24"/>
<polygon fill="black" stroke="black" points="119.5,-176.47 123,-186.47 126.5,-176.47 119.5,-176.47"/>
</g>
<!-- rightcamera -->
<g id="node9" class="node">
<title>rightcamera</title>
<path fill="#5abaa7" stroke="black" d="M188.16,-186.5C188.16,-186.5 257.84,-186.5 257.84,-186.5 262.01,-186.5 266.17,-190.67 266.17,-194.83 266.17,-194.83 266.17,-203.17 266.17,-203.17 266.17,-207.33 262.01,-211.5 257.84,-211.5 257.84,-211.5 188.16,-211.5 188.16,-211.5 183.99,-211.5 179.83,-207.33 179.83,-203.17 179.83,-203.17 179.83,-194.83 179.83,-194.83 179.83,-190.67 183.99,-186.5 188.16,-186.5"/>
<text text-anchor="middle" x="223" y="-194.8" font-family="Times,serif" font-size="14.00">right camera</text>
</g>
<!-- rightscreen&#45;&gt;rightcamera -->
<g id="edge9" class="edge">
<title>rightscreen&#45;&gt;rightcamera</title>
<path fill="none" stroke="black" d="M223,-149.57C223,-157.12 223,-167.22 223,-176.24"/>
<polygon fill="black" stroke="black" points="219.5,-176.47 223,-186.47 226.5,-176.47 219.5,-176.47"/>
</g>
<!-- righttransform -->
<g id="node12" class="node">
<title>righttransform</title>
<path fill="none" stroke="black" d="M192.33,-248.5C192.33,-248.5 247.67,-248.5 247.67,-248.5 251.83,-248.5 256,-252.67 256,-256.83 256,-256.83 256,-265.17 256,-265.17 256,-269.33 251.83,-273.5 247.67,-273.5 247.67,-273.5 192.33,-273.5 192.33,-273.5 188.17,-273.5 184,-269.33 184,-265.17 184,-265.17 184,-256.83 184,-256.83 184,-252.67 188.17,-248.5 192.33,-248.5"/>
<text text-anchor="middle" x="219.71" y="-256.8" font-family="Times,serif" font-size="14.00">transform</text>
</g>
<!-- rightcamera&#45;&gt;righttransform -->
<g id="edge12" class="edge">
<title>rightcamera&#45;&gt;righttransform</title>
<path fill="none" stroke="black" d="M222.42,-211.57C222.04,-219.12 221.54,-229.22 221.09,-238.24"/>
<polygon fill="black" stroke="black" points="217.58,-238.3 220.58,-248.47 224.57,-238.65 217.58,-238.3"/>
</g>
<!-- lefttransform -->
<g id="node11" class="node">
<title>lefttransform</title>
<path fill="none" stroke="black" d="M100.33,-248.5C100.33,-248.5 155.67,-248.5 155.67,-248.5 159.83,-248.5 164,-252.67 164,-256.83 164,-256.83 164,-265.17 164,-265.17 164,-269.33 159.83,-273.5 155.67,-273.5 155.67,-273.5 100.33,-273.5 100.33,-273.5 96.17,-273.5 92,-269.33 92,-265.17 92,-265.17 92,-256.83 92,-256.83 92,-252.67 96.17,-248.5 100.33,-248.5"/>
<text text-anchor="middle" x="127.71" y="-256.8" font-family="Times,serif" font-size="14.00">transform</text>
</g>
<!-- leftcamera&#45;&gt;lefttransform -->
<g id="edge11" class="edge">
<title>leftcamera&#45;&gt;lefttransform</title>
<path fill="none" stroke="black" d="M123.96,-211.57C124.59,-219.12 125.44,-229.22 126.19,-238.24"/>
<polygon fill="black" stroke="black" points="122.72,-238.79 127.04,-248.47 129.7,-238.21 122.72,-238.79"/>
</g>
<!-- root -->
<g id="node13" class="node">
<title>root</title>
<path fill="#99d2f2" stroke="black" d="M146.33,-310.5C146.33,-310.5 201.67,-310.5 201.67,-310.5 205.83,-310.5 210,-314.67 210,-318.83 210,-318.83 210,-327.17 210,-327.17 210,-331.33 205.83,-335.5 201.67,-335.5 201.67,-335.5 146.33,-335.5 146.33,-335.5 142.17,-335.5 138,-331.33 138,-327.17 138,-327.17 138,-318.83 138,-318.83 138,-314.67 142.17,-310.5 146.33,-310.5"/>
<text text-anchor="middle" x="173.53" y="-318.8" font-family="Times,serif" font-size="14.00">.root</text>
</g>
<!-- lefttransform&#45;&gt;root -->
<g id="edge13" class="edge">
<title>lefttransform&#45;&gt;root:w</title>
<path fill="none" stroke="black" d="M125.06,-273.76C122.07,-287.75 118.97,-310.32 127.47,-319.22"/>
<polygon fill="black" stroke="black" points="126.41,-322.56 137,-323 129,-316.06 126.41,-322.56"/>
</g>
<!-- righttransform&#45;&gt;root -->
<g id="edge14" class="edge">
<title>righttransform&#45;&gt;root:e</title>
<path fill="none" stroke="black" d="M222.94,-273.76C225.93,-287.75 229.03,-310.32 220.53,-319.22"/>
<polygon fill="black" stroke="black" points="219,-316.06 211,-323 221.59,-322.56 219,-316.06"/>
</g>
</g>
</svg>
