<?xml version="1.0" encoding="UTF-8" standalone="no"?>
<!DOCTYPE svg PUBLIC "-//W3C//DTD SVG 1.1//EN"
 "http://www.w3.org/Graphics/SVG/1.1/DTD/svg11.dtd">
<!-- Generated by graphviz version 2.43.0 (0)
 -->
<!-- Title: output Pages: 1 -->
<svg width="293pt" height="344pt"
 viewBox="0.00 0.00 293.26 344.00" xmlns="http://www.w3.org/2000/svg" xmlns:xlink="http://www.w3.org/1999/xlink">
<g id="graph0" class="graph" transform="scale(1 1) rotate(0) translate(4 340)">
<title>output</title>
<polygon fill="transparent" stroke="transparent" points="-4,4 -4,-340 289.26,-340 289.26,4 -4,4"/>
<!-- driver -->
<g id="node1" class="node">
<title>driver</title>
<path fill="#cc9ccc" stroke="black" d="M106.61,-0.5C106.61,-0.5 178.65,-0.5 178.65,-0.5 182.82,-0.5 186.98,-4.67 186.98,-8.83 186.98,-8.83 186.98,-17.17 186.98,-17.17 186.98,-21.33 182.82,-25.5 178.65,-25.5 178.65,-25.5 106.61,-25.5 106.61,-25.5 102.44,-25.5 98.28,-21.33 98.28,-17.17 98.28,-17.17 98.28,-8.83 98.28,-8.83 98.28,-4.67 102.44,-0.5 106.61,-0.5"/>
<text text-anchor="middle" x="142.63" y="-8.8" font-family="Times,serif" font-size="14.00">output driver</text>
</g>
<!-- layer -->
<g id="node2" class="node">
<title>layer</title>
<path fill="lightgrey" stroke="black" d="M8.33,-62.5C8.33,-62.5 74.93,-62.5 74.93,-62.5 79.09,-62.5 83.26,-66.67 83.26,-70.83 83.26,-70.83 83.26,-79.17 83.26,-79.17 83.26,-83.33 79.09,-87.5 74.93,-87.5 74.93,-87.5 8.33,-87.5 8.33,-87.5 4.17,-87.5 0,-83.33 0,-79.17 0,-79.17 0,-70.83 0,-70.83 0,-66.67 4.17,-62.5 8.33,-62.5"/>
<text text-anchor="middle" x="41.63" y="-70.8" font-family="Times,serif" font-size="14.00">output layer</text>
</g>
<!-- driver&#45;&gt;layer -->
<g id="edge1" class="edge">
<title>driver&#45;&gt;layer</title>
<path fill="none" stroke="black" d="M123.16,-25.57C108.07,-34.53 86.94,-47.08 69.98,-57.16"/>
<polygon fill="black" stroke="black" points="67.85,-54.35 61.04,-62.47 71.43,-60.37 67.85,-54.35"/>
</g>
<!-- layer2 -->
<g id="node4" class="node">
<title>layer2</title>
<path fill="lightgrey" stroke="black" d="M109.33,-62.5C109.33,-62.5 175.93,-62.5 175.93,-62.5 180.09,-62.5 184.26,-66.67 184.26,-70.83 184.26,-70.83 184.26,-79.17 184.26,-79.17 184.26,-83.33 180.09,-87.5 175.93,-87.5 175.93,-87.5 109.33,-87.5 109.33,-87.5 105.17,-87.5 101,-83.33 101,-79.17 101,-79.17 101,-70.83 101,-70.83 101,-66.67 105.17,-62.5 109.33,-62.5"/>
<text text-anchor="middle" x="142.63" y="-70.8" font-family="Times,serif" font-size="14.00">output layer</text>
</g>
<!-- driver&#45;&gt;layer2 -->
<g id="edge3" class="edge">
<title>driver&#45;&gt;layer2</title>
<path fill="none" stroke="black" d="M142.63,-25.57C142.63,-33.12 142.63,-43.22 142.63,-52.24"/>
<polygon fill="black" stroke="black" points="139.13,-52.47 142.63,-62.47 146.13,-52.47 139.13,-52.47"/>
</g>
<!-- layer3 -->
<g id="node5" class="node">
<title>layer3</title>
<path fill="lightgrey" stroke="black" d="M210.33,-62.5C210.33,-62.5 276.93,-62.5 276.93,-62.5 281.09,-62.5 285.26,-66.67 285.26,-70.83 285.26,-70.83 285.26,-79.17 285.26,-79.17 285.26,-83.33 281.09,-87.5 276.93,-87.5 276.93,-87.5 210.33,-87.5 210.33,-87.5 206.17,-87.5 202,-83.33 202,-79.17 202,-79.17 202,-70.83 202,-70.83 202,-66.67 206.17,-62.5 210.33,-62.5"/>
<text text-anchor="middle" x="243.63" y="-70.8" font-family="Times,serif" font-size="14.00">output layer</text>
</g>
<!-- driver&#45;&gt;layer3 -->
<g id="edge5" class="edge">
<title>driver&#45;&gt;layer3</title>
<path fill="none" stroke="black" d="M162.1,-25.57C177.19,-34.53 198.32,-47.08 215.28,-57.16"/>
<polygon fill="black" stroke="black" points="213.83,-60.37 224.22,-62.47 217.41,-54.35 213.83,-60.37"/>
</g>
<!-- screen -->
<g id="node3" class="node">
<title>screen</title>
<path fill="#ffc2c2" stroke="black" d="M114.96,-124.5C114.96,-124.5 170.3,-124.5 170.3,-124.5 174.46,-124.5 178.63,-128.67 178.63,-132.83 178.63,-132.83 178.63,-141.17 178.63,-141.17 178.63,-145.33 174.46,-149.5 170.3,-149.5 170.3,-149.5 114.96,-149.5 114.96,-149.5 110.8,-149.5 106.63,-145.33 106.63,-141.17 106.63,-141.17 106.63,-132.83 106.63,-132.83 106.63,-128.67 110.8,-124.5 114.96,-124.5"/>
<text text-anchor="middle" x="142.51" y="-132.8" font-family="Times,serif" font-size="14.00">screen</text>
</g>
<!-- layer&#45;&gt;screen -->
<g id="edge2" class="edge">
<title>layer&#45;&gt;screen</title>
<path fill="none" stroke="black" d="M61.1,-87.57C76.19,-96.53 97.32,-109.08 114.28,-119.16"/>
<polygon fill="black" stroke="black" points="112.83,-122.37 123.22,-124.47 116.41,-116.35 112.83,-122.37"/>
</g>
<!-- camera -->
<g id="node6" class="node">
<title>camera</title>
<path fill="#5abaa7" stroke="black" d="M114.96,-186.5C114.96,-186.5 170.3,-186.5 170.3,-186.5 174.46,-186.5 178.63,-190.67 178.63,-194.83 178.63,-194.83 178.63,-203.17 178.63,-203.17 178.63,-207.33 174.46,-211.5 170.3,-211.5 170.3,-211.5 114.96,-211.5 114.96,-211.5 110.8,-211.5 106.63,-207.33 106.63,-203.17 106.63,-203.17 106.63,-194.83 106.63,-194.83 106.63,-190.67 110.8,-186.5 114.96,-186.5"/>
<text text-anchor="middle" x="142.33" y="-194.8" font-family="Times,serif" font-size="14.00">camera</text>
</g>
<!-- screen&#45;&gt;camera -->
<g id="edge7" class="edge">
<title>screen&#45;&gt;camera</title>
<path fill="none" stroke="black" d="M142.63,-149.57C142.63,-157.12 142.63,-167.22 142.63,-176.24"/>
<polygon fill="black" stroke="black" points="139.13,-176.47 142.63,-186.47 146.13,-176.47 139.13,-176.47"/>
</g>
<!-- layer2&#45;&gt;screen -->
<g id="edge4" class="edge">
<title>layer2&#45;&gt;screen</title>
<path fill="none" stroke="black" d="M142.63,-87.57C142.63,-95.12 142.63,-105.22 142.63,-114.24"/>
<polygon fill="black" stroke="black" points="139.13,-114.47 142.63,-124.47 146.13,-114.47 139.13,-114.47"/>
</g>
<!-- layer3&#45;&gt;screen -->
<g id="edge6" class="edge">
<title>layer3&#45;&gt;screen</title>
<path fill="none" stroke="black" d="M224.16,-87.57C209.07,-96.53 187.94,-109.08 170.98,-119.16"/>
<polygon fill="black" stroke="black" points="168.85,-116.35 162.04,-124.47 172.43,-122.37 168.85,-116.35"/>
</g>
<!-- transform -->
<g id="node7" class="node">
<title>transform</title>
<path fill="none" stroke="black" d="M114.96,-248.5C114.96,-248.5 170.3,-248.5 170.3,-248.5 174.46,-248.5 178.63,-252.67 178.63,-256.83 178.63,-256.83 178.63,-265.17 178.63,-265.17 178.63,-269.33 174.46,-273.5 170.3,-273.5 170.3,-273.5 114.96,-273.5 114.96,-273.5 110.8,-273.5 106.63,-269.33 106.63,-265.17 106.63,-265.17 106.63,-256.83 106.63,-256.83 106.63,-252.67 110.8,-248.5 114.96,-248.5"/>
<text text-anchor="middle" x="142.34" y="-256.8" font-family="Times,serif" font-size="14.00">transform</text>
</g>
<!-- camera&#45;&gt;transform -->
<g id="edge8" class="edge">
<title>camera&#45;&gt;transform</title>
<path fill="none" stroke="black" d="M142.63,-211.57C142.63,-219.12 142.63,-229.22 142.63,-238.24"/>
<polygon fill="black" stroke="black" points="139.13,-238.47 142.63,-248.47 146.13,-238.47 139.13,-238.47"/>
</g>
<!-- root -->
<g id="node8" class="node">
<title>root</title>
<path fill="#99d2f2" stroke="black" d="M114.96,-310.5C114.96,-310.5 170.3,-310.5 170.3,-310.5 174.46,-310.5 178.63,-314.67 178.63,-318.83 178.63,-318.83 178.63,-327.17 178.63,-327.17 178.63,-331.33 174.46,-335.5 170.3,-335.5 170.3,-335.5 114.96,-335.5 114.96,-335.5 110.8,-335.5 106.63,-331.33 106.63,-327.17 106.63,-327.17 106.63,-318.83 106.63,-318.83 106.63,-314.67 110.8,-310.5 114.96,-310.5"/>
<text text-anchor="middle" x="142.16" y="-318.8" font-family="Times,serif" font-size="14.00">.root</text>
</g>
<!-- transform&#45;&gt;root -->
<g id="edge9" class="edge">
<title>transform&#45;&gt;root</title>
<path fill="none" stroke="black" d="M142.63,-273.57C142.63,-281.12 142.63,-291.22 142.63,-300.24"/>
<polygon fill="black" stroke="black" points="139.13,-300.47 142.63,-310.47 146.13,-300.47 139.13,-300.47"/>
</g>
</g>
</svg>
