<?xml version="1.0" encoding="UTF-8" standalone="no"?>
<!DOCTYPE svg PUBLIC "-//W3C//DTD SVG 1.1//EN"
 "http://www.w3.org/Graphics/SVG/1.1/DTD/svg11.dtd">
<!-- Generated by graphviz version 2.43.0 (0)
 -->
<!-- Title: vampire Pages: 1 -->
<svg width="374pt" height="313pt"
 viewBox="0.00 0.00 374.39 313.00" xmlns="http://www.w3.org/2000/svg" xmlns:xlink="http://www.w3.org/1999/xlink">
<g id="graph0" class="graph" transform="scale(1 1) rotate(0) translate(4 309)">
<title>vampire</title>
<polygon fill="white" stroke="transparent" points="-4,4 -4,-309 370.39,-309 370.39,4 -4,4"/>
<!-- hat -->
<g id="node1" class="node">
<title>hat</title>
<path fill="#ffc374" stroke="black" d="M16.73,-63.5C16.73,-63.5 72.06,-63.5 72.06,-63.5 76.23,-63.5 80.39,-67.67 80.39,-71.83 80.39,-71.83 80.39,-80.17 80.39,-80.17 80.39,-84.33 76.23,-88.5 72.06,-88.5 72.06,-88.5 16.73,-88.5 16.73,-88.5 12.56,-88.5 8.39,-84.33 8.39,-80.17 8.39,-80.17 8.39,-71.83 8.39,-71.83 8.39,-67.67 12.56,-63.5 16.73,-63.5"/>
<text text-anchor="middle" x="43.94" y="-71.8" font-family="Times,serif" font-size="14.00">hat</text>
</g>
<!-- hat_transform -->
<g id="node2" class="node">
<title>hat_transform</title>
<path fill="none" stroke="black" d="M16.73,-153.5C16.73,-153.5 72.06,-153.5 72.06,-153.5 76.23,-153.5 80.39,-157.67 80.39,-161.83 80.39,-161.83 80.39,-170.17 80.39,-170.17 80.39,-174.33 76.23,-178.5 72.06,-178.5 72.06,-178.5 16.73,-178.5 16.73,-178.5 12.56,-178.5 8.39,-174.33 8.39,-170.17 8.39,-170.17 8.39,-161.83 8.39,-161.83 8.39,-157.67 12.56,-153.5 16.73,-153.5"/>
<text text-anchor="middle" x="44.11" y="-161.8" font-family="Times,serif" font-size="14.00">transform</text>
</g>
<!-- hat&#45;&gt;hat_transform -->
<g id="edge1" class="edge">
<title>hat&#45;&gt;hat_transform</title>
<path fill="none" stroke="black" d="M44.39,-88.5C44.39,-102.34 44.39,-125.86 44.39,-143.17"/>
<polygon fill="black" stroke="black" points="40.89,-143.49 44.39,-153.49 47.89,-143.49 40.89,-143.49"/>
</g>
<!-- vampire -->
<g id="node3" class="node">
<title>vampire</title>
<path fill="none" stroke="black" d="M123.73,-216.5C123.73,-216.5 179.06,-216.5 179.06,-216.5 183.23,-216.5 187.39,-220.67 187.39,-224.83 187.39,-224.83 187.39,-233.17 187.39,-233.17 187.39,-237.33 183.23,-241.5 179.06,-241.5 179.06,-241.5 123.73,-241.5 123.73,-241.5 119.56,-241.5 115.39,-237.33 115.39,-233.17 115.39,-233.17 115.39,-224.83 115.39,-224.83 115.39,-220.67 119.56,-216.5 123.73,-216.5"/>
<text text-anchor="middle" x="151.06" y="-224.8" font-family="Times,serif" font-size="14.00">ghost</text>
</g>
<!-- hat_transform&#45;&gt;vampire -->
<g id="edge2" class="edge">
<title>hat_transform&#45;&gt;vampire:w</title>
<path fill="none" stroke="black" d="M50.63,-178.66C59.98,-194.59 79.27,-221.85 104.46,-227.82"/>
<polygon fill="black" stroke="black" points="104.05,-231.3 114.39,-229 104.88,-224.35 104.05,-231.3"/>
</g>
<!-- root -->
<g id="node5" class="node">
<title>root</title>
<path fill="none" stroke="black" d="M179.73,-279.5C179.73,-279.5 235.06,-279.5 235.06,-279.5 239.23,-279.5 243.39,-283.67 243.39,-287.83 243.39,-287.83 243.39,-296.17 243.39,-296.17 243.39,-300.33 239.23,-304.5 235.06,-304.5 235.06,-304.5 179.73,-304.5 179.73,-304.5 175.56,-304.5 171.39,-300.33 171.39,-296.17 171.39,-296.17 171.39,-287.83 171.39,-287.83 171.39,-283.67 175.56,-279.5 179.73,-279.5"/>
<text text-anchor="middle" x="207.17" y="-287.8" font-family="Times,serif" font-size="14.00">root</text>
</g>
<!-- vampire&#45;&gt;root -->
<g id="edge4" class="edge">
<title>vampire&#45;&gt;root:w</title>
<path fill="none" stroke="black" d="M150.16,-241.66C149.15,-256.25 149.39,-280.37 160.69,-288.89"/>
<polygon fill="black" stroke="black" points="159.8,-292.29 170.39,-292 161.94,-285.62 159.8,-292.29"/>
</g>
<!-- head -->
<g id="node4" class="node">
<title>head</title>
<path fill="#ffc374" stroke="black" d="M106.73,-153.5C106.73,-153.5 162.06,-153.5 162.06,-153.5 166.23,-153.5 170.39,-157.67 170.39,-161.83 170.39,-161.83 170.39,-170.17 170.39,-170.17 170.39,-174.33 166.23,-178.5 162.06,-178.5 162.06,-178.5 106.73,-178.5 106.73,-178.5 102.56,-178.5 98.39,-174.33 98.39,-170.17 98.39,-170.17 98.39,-161.83 98.39,-161.83 98.39,-157.67 102.56,-153.5 106.73,-153.5"/>
<text text-anchor="middle" x="134.11" y="-161.8" font-family="Times,serif" font-size="14.00">head</text>
</g>
<!-- head&#45;&gt;vampire -->
<g id="edge3" class="edge">
<title>head&#45;&gt;vampire</title>
<path fill="none" stroke="black" d="M137.67,-178.76C139.86,-186.61 142.8,-197.16 145.4,-206.48"/>
<polygon fill="black" stroke="black" points="142.07,-207.58 148.13,-216.27 148.81,-205.7 142.07,-207.58"/>
</g>
<!-- mirror -->
<g id="node6" class="node">
<title>mirror</title>
<path fill="#ffc374" stroke="black" d="M302.73,-153.5C302.73,-153.5 358.06,-153.5 358.06,-153.5 362.23,-153.5 366.39,-157.67 366.39,-161.83 366.39,-161.83 366.39,-170.17 366.39,-170.17 366.39,-174.33 362.23,-178.5 358.06,-178.5 358.06,-178.5 302.73,-178.5 302.73,-178.5 298.56,-178.5 294.39,-174.33 294.39,-170.17 294.39,-170.17 294.39,-161.83 294.39,-161.83 294.39,-157.67 298.56,-153.5 302.73,-153.5"/>
<text text-anchor="middle" x="330.28" y="-161.8" font-family="Times,serif" font-size="14.00">mirror</text>
</g>
<!-- mirror_transform -->
<g id="node7" class="node">
<title>mirror_transform</title>
<path fill="none" stroke="black" d="M248.73,-216.5C248.73,-216.5 304.06,-216.5 304.06,-216.5 308.23,-216.5 312.39,-220.67 312.39,-224.83 312.39,-224.83 312.39,-233.17 312.39,-233.17 312.39,-237.33 308.23,-241.5 304.06,-241.5 304.06,-241.5 248.73,-241.5 248.73,-241.5 244.56,-241.5 240.39,-237.33 240.39,-233.17 240.39,-233.17 240.39,-224.83 240.39,-224.83 240.39,-220.67 244.56,-216.5 248.73,-216.5"/>
<text text-anchor="middle" x="276.11" y="-224.8" font-family="Times,serif" font-size="14.00">transform</text>
</g>
<!-- mirror&#45;&gt;mirror_transform -->
<g id="edge5" class="edge">
<title>mirror&#45;&gt;mirror_transform:e</title>
<path fill="none" stroke="black" d="M331.96,-178.66C333.39,-193.25 333.87,-217.37 322.93,-225.89"/>
<polygon fill="black" stroke="black" points="321.82,-222.57 313.39,-229 323.99,-229.23 321.82,-222.57"/>
</g>
<!-- mirror_transform&#45;&gt;root -->
<g id="edge6" class="edge">
<title>mirror_transform&#45;&gt;root:e</title>
<path fill="none" stroke="black" d="M275.55,-241.66C273.86,-256.68 268.88,-281.76 254.21,-289.59"/>
<polygon fill="black" stroke="black" points="253.27,-286.22 244.39,-292 254.94,-293.02 253.27,-286.22"/>
</g>
<!-- vampire_attributes -->
<g id="node8" class="node">
<title>vampire_attributes</title>
<path fill="#ccccfc" stroke="black" d="M196.33,-153.5C196.33,-153.5 268.45,-153.5 268.45,-153.5 272.62,-153.5 276.79,-157.67 276.79,-161.83 276.79,-161.83 276.79,-170.17 276.79,-170.17 276.79,-174.33 272.62,-178.5 268.45,-178.5 268.45,-178.5 196.33,-178.5 196.33,-178.5 192.17,-178.5 188,-174.33 188,-170.17 188,-170.17 188,-161.83 188,-161.83 188,-157.67 192.17,-153.5 196.33,-153.5"/>
<text text-anchor="middle" x="220.89" y="-161.8" font-family="Times,serif" font-size="14.00">visibility</text>
<polyline fill="none" stroke="black" points="253.79,-153.5 253.79,-178.5 "/>
<text text-anchor="middle" x="265.29" y="-161.8" font-family="Times,serif" font-size="14.00">0</text>
</g>
<!-- vampire_attributes&#45;&gt;vampire -->
<g id="edge7" class="edge">
<title>vampire_attributes&#45;&gt;vampire:e</title>
<path fill="none" stroke="black" d="M229.75,-178.66C225.63,-193.96 216.24,-219.71 198.47,-227.01"/>
<polygon fill="black" stroke="black" points="197.53,-223.63 188.39,-229 198.88,-230.5 197.53,-223.63"/>
</g>
<!-- hat_attributes -->
<g id="node9" class="node">
<title>hat_attributes</title>
<path fill="#ccccfc" stroke="black" d="M8.33,-0.5C8.33,-0.5 80.45,-0.5 80.45,-0.5 84.62,-0.5 88.79,-4.67 88.79,-8.83 88.79,-8.83 88.79,-17.17 88.79,-17.17 88.79,-21.33 84.62,-25.5 80.45,-25.5 80.45,-25.5 8.33,-25.5 8.33,-25.5 4.17,-25.5 0,-21.33 0,-17.17 0,-17.17 0,-8.83 0,-8.83 0,-4.67 4.17,-0.5 8.33,-0.5"/>
<text text-anchor="middle" x="32.89" y="-8.8" font-family="Times,serif" font-size="14.00">visibility</text>
<polyline fill="none" stroke="black" points="65.79,-0.5 65.79,-25.5 "/>
<text text-anchor="middle" x="77.29" y="-8.8" font-family="Times,serif" font-size="14.00">1</text>
</g>
<!-- hat_attributes&#45;&gt;hat -->
<g id="edge8" class="edge">
<title>hat_attributes&#45;&gt;hat</title>
<path fill="none" stroke="black" d="M44.39,-25.76C44.39,-33.53 44.39,-43.93 44.39,-53.18"/>
<polygon fill="black" stroke="black" points="40.89,-53.27 44.39,-63.27 47.89,-53.27 40.89,-53.27"/>
</g>
<!-- mirror_attributes -->
<g id="node10" class="node">
<title>mirror_attributes</title>
<path fill="#ccccfc" stroke="black" d="M248.73,-63.5C248.73,-63.5 304.06,-63.5 304.06,-63.5 308.23,-63.5 312.39,-67.67 312.39,-71.83 312.39,-71.83 312.39,-80.17 312.39,-80.17 312.39,-84.33 308.23,-88.5 304.06,-88.5 304.06,-88.5 248.73,-88.5 248.73,-88.5 244.56,-88.5 240.39,-84.33 240.39,-80.17 240.39,-80.17 240.39,-71.83 240.39,-71.83 240.39,-67.67 244.56,-63.5 248.73,-63.5"/>
<text text-anchor="middle" x="275.94" y="-71.8" font-family="Times,serif" font-size="14.00">attributes</text>
</g>
<!-- mirror_attributes&#45;&gt;mirror -->
<g id="edge9" class="edge">
<title>mirror_attributes&#45;&gt;mirror</title>
<path fill="none" stroke="black" d="M293.5,-88.57C299.87,-93.59 306.68,-99.95 311.39,-107 318.62,-117.81 323.29,-131.59 326.19,-143.01"/>
<polygon fill="black" stroke="black" points="322.84,-144.07 328.45,-153.05 329.67,-142.53 322.84,-144.07"/>
</g>
<!-- mirror_attributes&#45;&gt;vampire_attributes -->
<g id="edge10" class="edge">
<title>mirror_attributes&#45;&gt;vampire_attributes</title>
<path fill="none" stroke="red" d="M261.98,-88.57C256.47,-93.68 250.58,-100.1 246.71,-107 240.48,-118.11 236.94,-131.9 234.93,-143.25"/>
<polygon fill="red" stroke="red" points="231.46,-142.8 233.44,-153.21 238.38,-143.84 231.46,-142.8"/>
<text text-anchor="middle" x="278.73" y="-123.8" font-family="Times,serif" font-size="14.00" fill="red">visibility=1</text>
<text text-anchor="middle" x="278.73" y="-109.8" font-family="Times,serif" font-size="14.00" fill="red">priority=2</text>
</g>
</g>
</svg>
